/* XPM */
static const char * broken_img_xpm[] = {
"48 48 234 2",
"  	c None",
". 	c #555555",
"+ 	c #525252",
"@ 	c #515151",
"# 	c #4E4E4E",
"$ 	c #4D4D4D",
"% 	c #4B4B4B",
"& 	c #4A4A4A",
"* 	c #484848",
"= 	c #464646",
"- 	c #444444",
"; 	c #424242",
"> 	c #404040",
", 	c #3E3E3E",
"' 	c #3C3C3C",
") 	c #3A3A3A",
"! 	c #383838",
"~ 	c #363636",
"{ 	c #343434",
"] 	c #323232",
"^ 	c #303030",
"/ 	c #2E2E2E",
"( 	c #000000",
"_ 	c #B6B6B6",
": 	c #B9B9B9",
"< 	c #B5B5B5",
"[ 	c #AAAAAA",
"} 	c #A0A0A0",
"| 	c #939393",
"1 	c #868686",
"2 	c #545454",
"3 	c #FAFAFA",
"4 	c #F2F2F2",
"5 	c #ECECEC",
"6 	c #E1E1E1",
"7 	c #CACACA",
"8 	c #535353",
"9 	c #C5C5C5",
"0 	c #F3F3F3",
"a 	c #EDEDED",
"b 	c #E7E7E7",
"c 	c #F4F4F4",
"d 	c #505050",
"e 	c #595959",
"f 	c #4F4F4F",
"g 	c #5C5C5C",
"h 	c #616161",
"i 	c #DCDCDC",
"j 	c #646464",
"k 	c #C2C2C2",
"l 	c #4C4C4C",
"m 	c #696969",
"n 	c #3F3F3F",
"o 	c #3B3B3B",
"p 	c #E9E9E8",
"q 	c #C5C4C2",
"r 	c #BABAB7",
"s 	c #A9A9A4",
"t 	c #9F9D95",
"u 	c #8C897F",
"v 	c #797771",
"w 	c #696561",
"x 	c #5C5957",
"y 	c #403F3F",
"z 	c #F7F7F7",
"A 	c #E2E2E2",
"B 	c #D4D4D3",
"C 	c #B8B7B3",
"D 	c #A8A6A2",
"E 	c #9A9690",
"F 	c #89847D",
"G 	c #535250",
"H 	c #F9F9F9",
"I 	c #F6F6F6",
"J 	c #E0E0E0",
"K 	c #D4D4D4",
"L 	c #D0CDCB",
"M 	c #BCBAB7",
"N 	c #AEABA6",
"O 	c #A29F95",
"P 	c #938E84",
"Q 	c #666461",
"R 	c #494949",
"S 	c #F5F5F4",
"T 	c #EAEAE9",
"U 	c #E0DFDD",
"V 	c #D7D4D1",
"W 	c #D0CEC9",
"X 	c #C6C1B7",
"Y 	c #B3ADA2",
"Z 	c #A29C94",
"` 	c #78726D",
" .	c #F9F8F6",
"..	c #F6F4F3",
"+.	c #F2F0ED",
"@.	c #E2E0DC",
"#.	c #DFDCD6",
"$.	c #D4D0CA",
"%.	c #CFC9C0",
"&.	c #C0BBAF",
"*.	c #B3ADA4",
"=.	c #847E75",
"-.	c #474747",
";.	c #EFE5D5",
">.	c #F8F6F3",
",.	c #F7F4F0",
"'.	c #F2EEE9",
").	c #E9E4DF",
"!.	c #E2DDD6",
"~.	c #DDD8D0",
"{.	c #D4CDC3",
"].	c #CEC7BD",
"^.	c #C3BCAE",
"/.	c #90877D",
"(.	c #F6F2ED",
"_.	c #F2EDE7",
":.	c #F0EAE1",
"<.	c #E8E1D9",
"[.	c #E0D9CF",
"}.	c #DBD4C9",
"|.	c #D4CBBF",
"1.	c #CCC5B7",
"2.	c #968B7D",
"3.	c #454545",
"4.	c #F5F1EA",
"5.	c #F4EFE7",
"6.	c #F2EAE1",
"7.	c #E7E1D6",
"8.	c #DED8CD",
"9.	c #DDD5C8",
"0.	c #DBD3C5",
"a.	c #D1C9B8",
"b.	c #9C917F",
"c.	c #F4EDE3",
"d.	c #F0E8DE",
"e.	c #ECE4D8",
"f.	c #E5DCD0",
"g.	c #DED6C7",
"h.	c #DCD2C2",
"i.	c #434343",
"j.	c #EEE1CE",
"k.	c #F3EBE1",
"l.	c #F2EADE",
"m.	c #EEE4D6",
"n.	c #E5DCCE",
"o.	c #E3DBCA",
"p.	c #1A1A19",
"q.	c #F1E8DB",
"r.	c #EBE1D1",
"s.	c #1E1E1A",
"t.	c #5E5E5E",
"u.	c #414141",
"v.	c #ECDEC8",
"w.	c #F0E6D8",
"x.	c #F0E4D4",
"y.	c #565656",
"z.	c #AA9981",
"A.	c #5A5A5A",
"B.	c #E5CEAC",
"C.	c #A9987F",
"D.	c #DEDAD7",
"E.	c #626262",
"F.	c #E9D7BB",
"G.	c #E1D2B6",
"H.	c #AA997E",
"I.	c #DDD9D5",
"J.	c #E8D5B8",
"K.	c #E7D5BB",
"L.	c #E0D0B3",
"M.	c #AF9B7F",
"N.	c #3D3D3D",
"O.	c #D6D2CC",
"P.	c #EADBC2",
"Q.	c #E9D6B9",
"R.	c #E0CEB0",
"S.	c #AE997D",
"T.	c #EAD9BE",
"U.	c #E4D0B0",
"V.	c #AE977A",
"W.	c #E4D1AF",
"X.	c #AE9679",
"Y.	c #E7D4B5",
"Z.	c #E8D3AD",
"`.	c #B49A79",
" +	c #E6D2B2",
".+	c #E6D0AF",
"++	c #B49675",
"@+	c #EBDCC5",
"#+	c #EFE3D1",
"$+	c #B59974",
"%+	c #EDE0CB",
"&+	c #E4CDA9",
"*+	c #B99D74",
"=+	c #B8B7B7",
"-+	c #E3CBA6",
";+	c #B99E74",
">+	c #353535",
",+	c #B7B6B4",
"'+	c #E2C9A3",
")+	c #B99970",
"!+	c #B7B5B3",
"~+	c #E1C7A0",
"{+	c #B7996E",
"]+	c #333333",
"^+	c #B7B4B0",
"/+	c #E1C59C",
"(+	c #B6986D",
"_+	c #B6B4AF",
":+	c #B6976B",
"<+	c #313131",
"[+	c #B5B2AC",
"}+	c #B4B1AA",
"|+	c #2F2F2F",
"1+	c #B4B0A8",
"2+	c #B6B0A6",
"3+	c #BBB3A7",
"4+	c #BCB2A4",
"5+	c #BBB0A1",
"6+	c #BBAF9F",
"7+	c #BAAD9C",
"8+	c #BAAD9A",
"9+	c #BAAC96",
"0+	c #B9AA95",
"a+	c #B9A891",
"b+	c #B9A88F",
"c+	c #B9A58B",
"d+	c #B8A58A",
"e+	c #B8A386",
"f+	c #B8A284",
"g+	c #BDA27C",
"h+	c #BCA17B",
"i+	c #BCA179",
"j+	c #BBA076",
"k+	c #B29161",
"                                                                                                ",
"                                                                                                ",
"                                                                                                ",
"                        . + @ # $ % & * = - ; > , ' ) ! ~ { ] ^ / (                             ",
"                        . _ : : : : : : : : : : : : : < < [ } | 1 = (                           ",
"                        2 : 3 3 3 3 3 3 3 3 3 3 3 3 3 3 4 5 6 7 < & 1 (                         ",
"                        8 : 3 3 3 3 3 3 3 3 3 3 3 3 3 3 3 4 5 6 7 $ 9 1 (                       ",
"                        + : 3 3 3 3 3 3 3 3 3 3 3 3 3 3 3 3 0 a 6 @ b 9 1 (                     ",
"                        @ : 3 3 3 3 3 3 3 3 3 3 3 3 3 3 3 3 3 c 5 2 3 b 9 1 (                   ",
"                        d : 3 3 3 3 3 3 3 3 3 3 3 3 3 3 3 3 3 3 4 e 3 3 b 9 1 (                 ",
"                        f : 3 3 3 3 3 3 3 3 3 3 3 3 3 3 3 3 3 3 3 g 5 3 3 b 9 1 (               ",
"                        # : 3 3 3 3 3 3 3 3 3 3 3 3 3 3 3 3 3 3 3 h i 5 3 3 b 9 1 (             ",
"                        $ : 3 3 3 3 3 3 3 3 3 3 3 3 3 3 3 3 3 3 3 j k i 5 3 3 b 9 1 (           ",
"                        l : 3 3 3 3 3 3 3 3 3 3 3 3 3 3 3 3 3 3 3 m d l * - n o ~ ] / (         ",
"                        % : 3 3 3 3 3 3 3 3 3 3 3 3 3 3 3 3 3 3 3 p q r s t u v w x y (         ",
"                        % : 3 3 3 3 3 3 3 3 3 3 3 3 3 3 3 3 3 3 3 z A B q C D E F v G (         ",
"                        & : 3 3 3 3 3 3 3 3 3 3 3 3 3 3 3 3 3 3 3 H I J K L M N O P Q (         ",
"                        R : 3 3 3 3 3 3 3 3 3 3 3 3 3 3 3 3 3 3 3 3 S T U V W X Y Z ` (         ",
"                        * : 3 3 3 3 3 3 3 3 3 3 3 3 3 3 3 3 A 3 3  ...+.@.#.$.%.&.*.=.(         ",
"                        -.: 3 3 3 3 3 3 3 3 3 3 3 3 3 3 3 A = ;. .>.,.'.).!.~.{.].^./.(         ",
"                        = : 3 3 3 3 3 3 3 3 3 3 3 3 3 3 3 A = ;.>.,.(._.:.<.[.}.|.1.2.(         ",
"                        3.: 3 3 3 3 3 3 3 3 3 3 3 3 3 3 A =   = ;.(.4.5.6.7.8.9.0.a.b.=         ",
"                        - : 3 3 3 3 3 3 3 3 3 3 3 3 3 3 A =   = ;.4.5.c.d.e.f.g.h.].]           ",
"                        i.: 3 3 3 3 3 3 3 3 A 3 3 3 3 A =       = j.c.k.l.m.n.o.].p.      (     ",
"                        ; : 3 3 3 3 3 3 3 A = A 3 3 3 A =       = j.k.l.q.;.r.9.s.      t.(     ",
"                        u.: 3 3 3 3 3 3 A , 3 = A 3 A =           = v.q.w.x.9.)       y.z.(     ",
"                        > : 3 3 3 3 3 J ; 3 3 = A  .A =     y.    = v.w.x.9.,       A.B.C.(     ",
"                        n : 3 3 3 3 D.=   3 3 3 = A =       E.      = v.F.=       E.B.G.H.(     ",
"                        , : 3 3 3 I.=     3 3  .= A =     E.J.y.    = F.=       t.B.K.L.M.(     ",
"                        N.: 3 3 O.=     3 E. .>.  =       E.J.y.      =       t.B.P.Q.R.S.(     ",
"                        ' : 3 $.=       E.q.E.,.  =     E.P.k.J.t.          t.B.P.T.J.U.V.(     ",
"                        o : $.=       E.q.q.E.          E.P.l.J.=         E.B.P.T.F.J.W.X.(     ",
"                        ( : =       E.q.3  .q.E.      E.P.l.q.w.J.y.    E.B.P.T.F.J.Y.Z.`.(     ",
"                        ( (       E.q.3  .>.q.E.      E.P.q.w.x.J.=   E.B.P.T.F.J.Y. +.+++(     ",
"                                E.q.3  .>.,.(.@+E.  E.P.q.w.x.#+j.B.E.B.P.T.F.J.Y. +.+B.$+(     ",
"                              E.q.3  .>.,.(.4.@+E.  A.P.w.x.#+j.%+v.B.P.T.F.J.Y. +.+B.&+*+(     ",
"                            E.=+3  .>.,.(.4.5.c.@+E.P.w.x.#+j.%+v.@+P.T.F.J.Y. +.+B.&+-+;+(     ",
"                            >+,+ .>.,.(.4.5.c.k.@+E.P.x.#+j.%+v.@+P.T.F.J.Y. +.+B.&+-+'+)+(     ",
"                            { !+>.,.(.4.5.c.k.l.q.@+x.#+j.%+v.@+P.T.F.J.Y. +.+B.&+-+'+~+{+(     ",
"                            ]+^+,.(.4.5.c.k.l.q.w.x.#+j.%+v.@+P.T.F.J.Y. +.+B.&+-+'+~+/+(+(     ",
"                            ] _+(.4.5.c.k.l.q.w.x.#+j.%+v.@+P.T.F.J.Y. +.+B.&+-+'+~+/+/+:+(     ",
"                            <+[+4.5.c.k.l.q.w.x.#+j.%+v.@+P.T.F.J.Y. +.+B.&+-+'+~+/+/+/+:+(     ",
"                            ^ }+5.c.k.l.q.w.x.#+j.%+v.@+P.T.F.J.Y. +.+B.&+-+'+~+/+/+/+/+:+(     ",
"                            |+1+c.k.l.q.w.x.#+j.%+v.@+P.T.F.J.Y. +.+B.&+-+'+~+/+/+/+/+/+:+(     ",
"                            / 2+3+4+5+6+7+8+9+0+a+b+c+d+e+f+f+g+h+i+j+*+;+)+{+(+:+:+:+:+k+(     ",
"                            ( ( ( ( ( ( ( ( ( ( ( ( ( ( ( ( ( ( ( ( ( ( ( ( ( ( ( ( ( ( ( (     ",
"                                                                                                ",
"                                                                                                "};
