/* XPM */
static const char * ft_folder_big_xpm[] = {
"48 48 587 2",
"  	c None",
". 	c #000000",
"+ 	c #C5D4F4",
"@ 	c #CCD6F5",
"# 	c #D5DAF6",
"$ 	c #81B2F4",
"% 	c #90B4F5",
"& 	c #ADC4F4",
"* 	c #C9D5F4",
"= 	c #CDD7F4",
"- 	c #D1D8F4",
"; 	c #3D629A",
"> 	c #5086C9",
", 	c #61A6F4",
"' 	c #9BBBF6",
") 	c #B5C8F8",
"! 	c #C9D8F4",
"~ 	c #CDD7F2",
"{ 	c #D1D9F0",
"] 	c #CFE6EE",
"^ 	c #EDF1FC",
"/ 	c #365F5F",
"( 	c #27403F",
"_ 	c #353534",
": 	c #3A6195",
"< 	c #B3D1E2",
"[ 	c #AFD7E8",
"} 	c #B9DDEE",
"| 	c #EDFDFE",
"1 	c #E1F1F2",
"2 	c #D8E9ED",
"3 	c #2C4243",
"4 	c #385D8F",
"5 	c #D2D9F5",
"6 	c #A6BCF5",
"7 	c #CDD5EE",
"8 	c #B3C4F4",
"9 	c #8FB5CA",
"0 	c #8AC1DB",
"a 	c #9ACCE3",
"b 	c #B2D7D9",
"c 	c #BED8DF",
"d 	c #C3DDE0",
"e 	c #C7DEE2",
"f 	c #D2E3E7",
"g 	c #2E4447",
"h 	c #B0C1F1",
"i 	c #B5C9F6",
"j 	c #B1BFF4",
"k 	c #B7C9F6",
"l 	c #BFCCEC",
"m 	c #C9D3F0",
"n 	c #6F99B6",
"o 	c #72B3CB",
"p 	c #81C0DA",
"q 	c #8FC1C6",
"r 	c #95C2CC",
"s 	c #A5CCD2",
"t 	c #B3D3D8",
"u 	c #C4DDDF",
"v 	c #C7DDE0",
"w 	c #D0E1E5",
"x 	c #353532",
"y 	c #61A3F4",
"z 	c #A9BCF4",
"A 	c #B1C4F4",
"B 	c #B1C7F4",
"C 	c #B5C7F4",
"D 	c #C1D0EC",
"E 	c #C5D3F2",
"F 	c #D0D7F3",
"G 	c #527F9F",
"H 	c #57A7C8",
"I 	c #65B6D4",
"J 	c #76AEB5",
"K 	c #7BADB8",
"L 	c #85B5BE",
"M 	c #8ABFC7",
"N 	c #B1D3D8",
"O 	c #BDD8DC",
"P 	c #C0D9DD",
"Q 	c #C5DBDE",
"R 	c #CEE0E3",
"S 	c #324A4D",
"T 	c #4D81C2",
"U 	c #69AAF4",
"V 	c #90B3F3",
"W 	c #9DB9FA",
"X 	c #AEC0F5",
"Y 	c #B0BFEF",
"Z 	c #437092",
"` 	c #4BA2C6",
" .	c #5AAFCF",
"..	c #66A0A7",
"+.	c #659FAA",
"@.	c #70AAB1",
"#.	c #73AAB4",
"$.	c #79ADB8",
"%.	c #86B6BD",
"&.	c #88BFC7",
"*.	c #93C0CA",
"=.	c #A2C9CF",
"-.	c #B1D0D6",
";.	c #BAD7DB",
">.	c #BFD8DC",
",.	c #C2D8DB",
"'.	c #CEDEE1",
").	c #5084CB",
"!.	c #61A2F2",
"~.	c #8DAFEE",
"{.	c #91B4F4",
"].	c #98B5F5",
"^.	c #95B4F4",
"/.	c #A5BAF0",
"(.	c #A5BBF4",
"_.	c #5C9DA5",
":.	c #579AA6",
"<.	c #609CA9",
"[.	c #5F9EA4",
"}.	c #649FA9",
"|.	c #6CA6AF",
"1.	c #70A9B3",
"2.	c #79ABB6",
"3.	c #83B2BA",
"4.	c #87BFC4",
"5.	c #92BFC7",
"6.	c #9FC6CC",
"7.	c #AECCD3",
"8.	c #BAD6DB",
"9.	c #BBD5DA",
"0.	c #DBEDF6",
"a.	c #426EAF",
"b.	c #558FDE",
"c.	c #6FA6F0",
"d.	c #7FAAF0",
"e.	c #81AFF4",
"f.	c #6BA9FE",
"g.	c #84B5F7",
"h.	c #BAC9F9",
"i.	c #40698B",
"j.	c #459DC2",
"k.	c #53A8C8",
"l.	c #5999A2",
"m.	c #5694A1",
"n.	c #599BA4",
"o.	c #5C9AA5",
"p.	c #5D96A0",
"q.	c #6299A5",
"r.	c #6DA4AE",
"s.	c #6EA8B1",
"t.	c #76ACB5",
"u.	c #81AFB8",
"v.	c #88BBC1",
"w.	c #8FBDC6",
"x.	c #9EC4CB",
"y.	c #BBD2D4",
"z.	c #71ACF4",
"A.	c #5999E8",
"B.	c #2D5F62",
"C.	c #345885",
"D.	c #4A7DBB",
"E.	c #5893DB",
"F.	c #CAD6EF",
"G.	c #53919C",
"H.	c #5595A0",
"I.	c #54949F",
"J.	c #54929D",
"K.	c #5699A3",
"L.	c #5696A1",
"M.	c #5D99A4",
"N.	c #5C939D",
"O.	c #5F99A4",
"P.	c #68A2AD",
"Q.	c #70A5AD",
"R.	c #76AAB3",
"S.	c #7FAEB6",
"T.	c #6D9DA4",
"U.	c #0F3032",
"V.	c #2E5E65",
"W.	c #11363A",
"X.	c #10363D",
"Y.	c #0E333D",
"Z.	c #538F96",
"`.	c #518D96",
" +	c #4F8F96",
".+	c #52929B",
"++	c #509099",
"@+	c #5596A0",
"#+	c #56949D",
"$+	c #5A98A1",
"%+	c #5A919B",
"&+	c #5E97A3",
"*+	c #67A2AA",
"=+	c #71959C",
"-+	c #BFD7DC",
";+	c #D9EAEC",
">+	c #366161",
",+	c #224849",
"'+	c #0E2E31",
")+	c #275050",
"!+	c #BDCFD4",
"~+	c #CAD8DB",
"{+	c #3D6488",
"]+	c #449BBF",
"^+	c #55A3C4",
"/+	c #4F8990",
"(+	c #4B8894",
"_+	c #4E8F95",
":+	c #519198",
"<+	c #518D98",
"[+	c #58949F",
"}+	c #5B949E",
"|+	c #71A1A8",
"1+	c #92B5BB",
"2+	c #CAE5E7",
"3+	c #DAEBEF",
"4+	c #0E2F31",
"5+	c #38646B",
"6+	c #A9CBCE",
"7+	c #B3D0D4",
"8+	c #B7D0D6",
"9+	c #CDDADC",
"0+	c #DFF0F2",
"a+	c #3C6483",
"b+	c #4396B8",
"c+	c #51A1C2",
"d+	c #468289",
"e+	c #46838B",
"f+	c #4B858C",
"g+	c #48848D",
"h+	c #4B8B92",
"i+	c #4B8790",
"j+	c #4E8991",
"k+	c #4E8A8F",
"l+	c #4F8B94",
"m+	c #4F8B92",
"n+	c #528C95",
"o+	c #569199",
"p+	c #59909C",
"q+	c #59909A",
"r+	c #6F9EA6",
"s+	c #5B8F98",
"t+	c #7EB2BB",
"u+	c #89B6BE",
"v+	c #97BDC4",
"w+	c #B1CDD2",
"x+	c #B7D0D4",
"y+	c #E5F2FC",
"z+	c #375C7E",
"A+	c #4293B5",
"B+	c #519FC0",
"C+	c #3F717A",
"D+	c #42777F",
"E+	c #457D82",
"F+	c #447C85",
"G+	c #488289",
"H+	c #49838A",
"I+	c #4A868D",
"J+	c #4B848E",
"K+	c #49858E",
"L+	c #4B828C",
"M+	c #4F8690",
"N+	c #508793",
"O+	c #508B93",
"P+	c #508791",
"Q+	c #4E8591",
"R+	c #568D99",
"S+	c #568D97",
"T+	c #78A8AF",
"U+	c #66A0A9",
"V+	c #70A2AB",
"W+	c #78A5AF",
"X+	c #89B5BE",
"Y+	c #95BBC2",
"Z+	c #345679",
"`+	c #346369",
" @	c #3B6A6F",
".@	c #3C6C71",
"+@	c #3E7479",
"@@	c #40787D",
"#@	c #457C84",
"$@	c #467D85",
"%@	c #498186",
"&@	c #497E86",
"*@	c #49868A",
"=@	c #4A818B",
"-@	c #4B838C",
";@	c #4F8992",
">@	c #4E858F",
",@	c #4F838C",
"'@	c #568D95",
")@	c #558C96",
"!@	c #639AA2",
"~@	c #679CA4",
"{@	c #72A2A9",
"]@	c #6DA2AA",
"^@	c #7CA7B1",
"/@	c #DAEDFB",
"(@	c #254460",
"_@	c #32777F",
":@	c #3A8299",
"<@	c #2A5159",
"[@	c #31575A",
"}@	c #335F60",
"|@	c #356168",
"1@	c #37646A",
"2@	c #3B6E6F",
"3@	c #3D7076",
"4@	c #3F757A",
"5@	c #43767C",
"6@	c #447981",
"7@	c #457F84",
"8@	c #468085",
"9@	c #478188",
"0@	c #497E88",
"a@	c #4A848B",
"b@	c #49808A",
"c@	c #4A7F8B",
"d@	c #558996",
"e@	c #578C94",
"f@	c #689DA5",
"g@	c #78A3AB",
"h@	c #CEE1EF",
"i@	c #E5E5E5",
"j@	c #A7B6B8",
"k@	c #617E82",
"l@	c #1A343B",
"m@	c #203D41",
"n@	c #234446",
"o@	c #2D5154",
"p@	c #2F5558",
"q@	c #315D5E",
"r@	c #355E66",
"s@	c #3B676C",
"t@	c #3E7075",
"u@	c #3F7278",
"v@	c #41757C",
"w@	c #457A82",
"x@	c #477C82",
"y@	c #487D85",
"z@	c #498188",
"A@	c #477E88",
"B@	c #477A84",
"C@	c #497D88",
"D@	c #497C86",
"E@	c #4B828A",
"F@	c #52878F",
"G@	c #568B93",
"H@	c #5F8F98",
"I@	c #C3D8E4",
"J@	c #FBFBFB",
"K@	c #FAFAFA",
"L@	c #F9F9F9",
"M@	c #A5B4B6",
"N@	c #58787B",
"O@	c #1D383C",
"P@	c #213F40",
"Q@	c #244445",
"R@	c #2A4E53",
"S@	c #2F5356",
"T@	c #32585B",
"U@	c #355F64",
"V@	c #366067",
"W@	c #38656B",
"X@	c #3D6D74",
"Y@	c #3E7177",
"Z@	c #407379",
"`@	c #42757B",
" #	c #44797F",
".#	c #457B80",
"+#	c #477982",
"@#	c #487C85",
"##	c #4A7F89",
"$#	c #54838D",
"%#	c #B5CDDA",
"&#	c #E3E3E3",
"*#	c #FFFFFF",
"=#	c #F8F8F8",
"-#	c #F6F6F6",
";#	c #F5F5F5",
">#	c #203E3F",
",#	c #234344",
"'#	c #294B50",
")#	c #2E5255",
"!#	c #345C63",
"~#	c #365F65",
"{#	c #386269",
"]#	c #3B6A70",
"^#	c #44767F",
"/#	c #467881",
"(#	c #487A83",
"_#	c #527F89",
":#	c #A6C0CF",
"<#	c #E2E2E2",
"[#	c #F7F7F7",
"}#	c #F4F4F4",
"|#	c #F1F1F1",
"1#	c #EEEEEE",
"2#	c #ECECEC",
"3#	c #EDEDED",
"4#	c #EFEFEF",
"5#	c #A1B0B2",
"6#	c #1D373A",
"7#	c #2A4A4F",
"8#	c #2F5054",
"9#	c #315558",
"0#	c #345C61",
"a#	c #376168",
"b#	c #3A656D",
"c#	c #3F7176",
"d#	c #41747A",
"e#	c #43737C",
"f#	c #44757D",
"g#	c #457780",
"h#	c #46787F",
"i#	c #507D85",
"j#	c #99B5C4",
"k#	c #DFDFDF",
"l#	c #F3F3F3",
"m#	c #F0F0F0",
"n#	c #EAEAEA",
"o#	c #E7E7E7",
"p#	c #E4E4E4",
"q#	c #E6E6E6",
"r#	c #EBEBEB",
"s#	c #9DACAE",
"t#	c #1D353A",
"u#	c #203A3D",
"v#	c #234142",
"w#	c #29494E",
"x#	c #2E4E53",
"y#	c #32585F",
"z#	c #345E61",
"A#	c #39666C",
"B#	c #3B6B70",
"C#	c #3E6B71",
"D#	c #3F6F76",
"E#	c #43747A",
"F#	c #44757B",
"G#	c #518188",
"H#	c #8CA9B9",
"I#	c #DDDDDD",
"J#	c #E9E9E9",
"K#	c #E0E0E0",
"L#	c #DADADA",
"M#	c #D9D9D9",
"N#	c #E1E1E1",
"O#	c #8F9EA0",
"P#	c #5C7A7F",
"Q#	c #1F3B3E",
"R#	c #223E41",
"S#	c #28494D",
"T#	c #2E4E51",
"U#	c #2F5256",
"V#	c #325A5D",
"W#	c #345A5F",
"X#	c #365E63",
"Y#	c #3B686E",
"Z#	c #3E686F",
"`#	c #3E6B73",
" $	c #4D7C80",
".$	c #7F9EAE",
"+$	c #F2F2F2",
"@$	c #DCDCDC",
"#$	c #D6D6D6",
"$$	c #D3D3D3",
"%$	c #D0D0D0",
"&$	c #D7D7D7",
"*$	c #97A6A8",
"=$	c #1B3338",
"-$	c #1E3A3D",
";$	c #214042",
">$	c #27484C",
",$	c #2D4D50",
"'$	c #305155",
")$	c #31565A",
"!$	c #335A5E",
"~$	c #355D62",
"{$	c #396168",
"]$	c #487277",
"^$	c #7394A4",
"/$	c #E8E8E8",
"($	c #DEDEDE",
"_$	c #DBDBDB",
":$	c #D8D8D8",
"<$	c #D5D5D5",
"[$	c #D2D2D2",
"}$	c #CFCFCF",
"|$	c #CCCCCC",
"1$	c #C9C9C9",
"2$	c #C6C6C6",
"3$	c #C7C7C7",
"4$	c #8F9C9E",
"5$	c #5F8084",
"6$	c #1A3237",
"7$	c #26474D",
"8$	c #2D4C4E",
"9$	c #305053",
"0$	c #325559",
"a$	c #3E6469",
"b$	c #67899A",
"c$	c #D4D4D4",
"d$	c #D1D1D1",
"e$	c #CECECE",
"f$	c #CBCBCB",
"g$	c #C8C8C8",
"h$	c #C5C5C5",
"i$	c #C2C2C2",
"j$	c #BFBFBF",
"k$	c #BCBCBC",
"l$	c #BDBDBD",
"m$	c #93A2A4",
"n$	c #1F393C",
"o$	c #213E42",
"p$	c #27474C",
"q$	c #3B5A5C",
"r$	c #608395",
"s$	c #CDCDCD",
"t$	c #CACACA",
"u$	c #C4C4C4",
"v$	c #C1C1C1",
"w$	c #BEBEBE",
"x$	c #BBBBBB",
"y$	c #B8B8B8",
"z$	c #B5B5B5",
"A$	c #B2B2B2",
"B$	c #B4B4B4",
"C$	c #99A7A8",
"D$	c #2C484B",
"E$	c #C0C0C0",
"F$	c #BABABA",
"G$	c #B7B7B7",
"H$	c #B1B1B1",
"I$	c #AEAEAE",
"J$	c #ABABAB",
"K$	c #A8A8A8",
"L$	c #A6A6A6",
"M$	c #B9B9B9",
"N$	c #869697",
"O$	c #234F50",
"P$	c #888888",
"Q$	c #B6B6B6",
"R$	c #B3B3B3",
"S$	c #B0B0B0",
"T$	c #ADADAD",
"U$	c #AAAAAA",
"V$	c #A7A7A7",
"W$	c #A0A0A0",
"X$	c #979797",
"Y$	c #878787",
"Z$	c #333331",
"`$	c #9E9E9E",
" %	c #A9A9A9",
".%	c #A3A3A3",
"+%	c #9A9A9A",
"@%	c #C3C3C3",
"#%	c #A4A4A4",
"$%	c #A1A1A1",
"%%	c #959595",
"&%	c #949494",
"*%	c #ACACAC",
"=%	c #9D9D9D",
"-%	c #868686",
";%	c #8E8E8E",
">%	c #AFAFAF",
",%	c #A5A5A5",
"'%	c #A2A2A2",
")%	c #9F9F9F",
"!%	c #9C9C9C",
"~%	c #939393",
"{%	c #9B9B9B",
"]%	c #929292",
"^%	c #818181",
"/%	c #999999",
"(%	c #919191",
"_%	c #7C7C7C",
":%	c #747474",
"<%	c #969696",
"[%	c #6E6E6E",
"}%	c #858585",
"|%	c #8C8C8C",
"1%	c #838383",
"2%	c #4778B4",
"3%	c #6C6C6C",
"4%	c #7B7B7B",
"5%	c #44545D",
"6%	c #030301",
"                                                                                                ",
"                                                                                                ",
"                                                                                                ",
"                          . . .                                                                 ",
"                        . + @ # . . .                                                           ",
"                        . $ % & * = - . . .                                                     ",
"                    . . . ; > , $ ' ) ! ~ { . . .                                               ",
"                  . ] ] ^ / ( _ : > , $ % ) ! ~ { . . .             . . .                       ",
"                  . < [ } | 1 2 / 3 _ 4 > , $ % ) * = 5 . . .     . 6 7 8 . . .                 ",
"                  . 9 0 a b c d e 1 f / g _ 4 > , $ % h ) i i . . j k k l m - 8 . . .           ",
"                  . n o p q r s t c u v 1 w / g x 4 > y $ % z z z z 6 6 A B C D E E F .         ",
"                  . G H I J K L M r s N O P Q 1 R / S _ 4 T U $ V W W 6 X j j C Y Y 8 .         ",
"                  . Z `  ...+.@.#.$.%.&.*.=.-.;.>.,.1 '._ _ ).!.~.{.% ].].^.W z /./.(.F .       ",
"                  . Z `  ._.:.<.[.}.|.1.2.3.4.5.6.7.8.9.0./ a.b.c.d.e.e., , f.g.e.% 6 h..       ",
"                  . i.j.k.l.m.m.n.n.o.p.q.r.s.t.u.v.w.x.y./ 4 > b., z.A.B.C.D.E., $ % % F..     ",
"                  . i.j.k.G.G.G.H.I.J.K.L.M.N.O.P.Q.R.S.T./ U.V.4 > b.> W.X.Y.x 4 > , $ $ .     ",
"                  . i.j.k.Z.`. +.+++++G.G..+@+#+$+%+&+*+=+-+;+>+,+'+)+4 W.!+1 ~+. . 4 > y .     ",
"                  . {+]+^+/+(+_+ +(+(+`.`. +.+:+<+G.G.[+}+|+1+d 2+3+/ 4+5+6+7+8+9+0+. 4 y .     ",
"                  . a+b+c+d+e+f+g+h+i+j+k+k+l+m+m+`.`.n+o+p+q+q+r+1+-+;+s+t+u+v+w+x+y+4 y .     ",
"                  . z+A+B+C+D+E+F+d+G+H+I+k+J+K+L+j+j+M+N+O+P+P+Q+R+S+1+T+U+V+W+X+Y+y+4 y .     ",
"                  . Z+A+B+`+ @.@+@@@D+#@$@%@&@*@f+L+=@=@J+-@-@;@>@>@,@'@)@!@~@{@]@^@/@4 y .     ",
"                  . (@_@:@<@[@}@|@1@2@3@4@5@6@7@8@9@0@a@0@&@&@L+b@0@,@-@c@d@e@e@f@g@h@4 y .     ",
"                  . i@j@k@l@m@n@o@p@q@r@1@s@t@u@v@D+w@x@x@y@z@&@A@B@C@A@D@E@E@F@G@H@I@4 y .     ",
"                  . i@J@K@L@M@N@O@P@Q@R@S@T@U@V@W@X@Y@Z@`@ #.#x@$@&@x@+#+#&@&@@###$#%#4 y .     ",
"                  . &#*#J@=#-#;#-#j@k@O@>#,#'#)#[@!#~#{#]#X@Y@Z@`@ #^#w@B@+#x@/#(#_#:#4 y .     ",
"                  . <#J@K@[#}#|#1#2#3#4#5#k@6#>#,#7#8#9#0#~#a#b#.@t@c#d#e#f#g#+#h#i#j#4 y .     ",
"                  . k#=#[#;#l#m#3#n#o#p#&#q#r#s#k@t#u#v#w#x#9#y#z#U@A#B#C#D#Z@E#F#G#H#4 y .     ",
"                  . I#;#}#l#|#4#2#J#q#&#K#I#L#M#k#N#O#P#6#Q#R#S#T#U#V#W#X#A#Y#Z#`# $.$4 y .     ",
"                  . L#+$|#m#4#2#n#o#i@<#k#@$M##$$$%$%$&$K#*$k@=$-$;$>$,$'$)$!$~${$]$^$4 y .     ",
"                  . &$4#1#3#2#n#/$q#&#K#($_$:$<$[$}$|$1$2$3$%$L#4$5$6$-$;$7$8$9$0$a$b$4 y .     ",
"                  . c$r#r#n#J#o#q#&#N#k#@$M##$c$d$e$f$g$h$i$j$k$l$g$#$m$P#6$n$o$p$q$r$4 y .     ",
"                  . [$/$/$o#q#i@&#N#k#I#L#:$<$[$}$s$t$3$u$v$w$x$y$z$A$B$v$c$C$P#6$D$b$4 y .     ",
"                  . f$N#N#p#&#<#K#k#I#L#:$#$$$%$e$f$g$h$i$E$l$F$G$B$H$I$J$K$L$M$t$N$O$4 y .     ",
"                  . P$w$%$#$@$_$($@$L#:$#$c$d$}$|$1$3$u$v$w$x$y$Q$R$S$T$U$V$W$W$X$Y$Z$4 y .     ",
"                    . . . `$u$}$c$<$c$#$c$d$}$s$t$g$h$i$E$l$F$G$B$H$I$J$ %L$.%W$X$P$Z$4 y .     ",
"                          . . . +%l$g$|$s$f$s$f$g$2$@%E$w$x$y$Q$R$S$T$U$V$#%$%`$%%Y$Z$4 y .     ",
"                                . . . &%G$E$u$u$i$u$v$j$k$M$G$B$H$I$*% %L$.%W$=%&%-%Z$4 y .     ",
"                                      . . . ;%>%y$F$x$M$F$y$z$A$S$T$U$V$,%'%)%!%~%-%Z$4 y .     ",
"                                            . . . P$K$>%H$A$>%H$I$J$ %L$.%W$=%{%]%-%Z$4 y .     ",
"                                                  . . . ^%W$V$ % %L$V$#%$%)%!%/%(%-%Z$4 y .     ",
"                                                        . . . _%X$`$)%)%=%=%+%X$(%-%Z$4 y .     ",
"                                                              . . . :%;%&%<%<%&%(%-%Z$4 y .     ",
"                                                                    . . . [%}%;%|%1%Z$4 2%.     ",
"                                                                          . . . 3%4%5%4 6%      ",
"                                                                                . . 6%6%        ",
"                                                                                                ",
"                                                                                                ",
"                                                                                                "};
