/* XPM */
static const char * ft_folder_xpm[] = {
"20 20 248 2",
"  	c None",
". 	c #141619",
"+ 	c #8D9AB4",
"@ 	c #8A94AE",
"# 	c #22242B",
"$ 	c #232529",
"% 	c #3A3C3D",
"& 	c #768088",
"* 	c #446E91",
"= 	c #5A7BA2",
"- 	c #8AABE2",
"; 	c #9CADD8",
"> 	c #666C7D",
", 	c #555763",
"' 	c #020202",
") 	c #51646F",
"! 	c #A6D3E6",
"~ 	c #AFCED0",
"{ 	c #A8C2C7",
"] 	c #5D7D87",
"^ 	c #58788C",
"/ 	c #5E87B8",
"( 	c #809AC9",
"_ 	c #96A9D1",
": 	c #757E98",
"< 	c #323747",
"[ 	c #7983A4",
"} 	c #AEB7D6",
"| 	c #585E6F",
"1 	c #3D3F48",
"2 	c #2E4A5B",
"3 	c #66AFCE",
"4 	c #8ABBC2",
"5 	c #98C3CA",
"6 	c #B3D4D9",
"7 	c #B1CED1",
"8 	c #94ACAE",
"9 	c #6E8E99",
"0 	c #426682",
"a 	c #5E82AE",
"b 	c #8AAFF1",
"c 	c #A1BBF7",
"d 	c #ADC0F4",
"e 	c #B4C4F3",
"f 	c #BFCBF4",
"g 	c #757A8C",
"h 	c #233F50",
"i 	c #54A3C6",
"j 	c #5E9DA6",
"k 	c #63A0AA",
"l 	c #70A8B2",
"m 	c #80B3BB",
"n 	c #93C0C8",
"o 	c #A6C9CF",
"p 	c #C0DBDF",
"q 	c #82A0A4",
"r 	c #578DCE",
"s 	c #7EACF7",
"t 	c #78A2E2",
"u 	c #6692D4",
"v 	c #88ADF3",
"w 	c #8BA0D1",
"x 	c #2A2E38",
"y 	c #223D4F",
"z 	c #4D9BC0",
"A 	c #54939D",
"B 	c #54939E",
"C 	c #5898A2",
"D 	c #5C98A3",
"E 	c #629DA8",
"F 	c #72A8B0",
"G 	c #7EAFB7",
"H 	c #648B8E",
"I 	c #466C81",
"J 	c #4F7EB2",
"K 	c #4877A5",
"L 	c #476F80",
"M 	c #4E6D83",
"N 	c #5F88C1",
"O 	c #303F58",
"P 	c #213C4D",
"Q 	c #4D99BD",
"R 	c #4D8890",
"S 	c #4D8B93",
"T 	c #4E8D96",
"U 	c #4F8D97",
"V 	c #52909A",
"W 	c #53919A",
"X 	c #57919C",
"Y 	c #78A5AD",
"Z 	c #A7CBD1",
"` 	c #94B2B6",
" .	c #64868F",
"..	c #93B8BE",
"+.	c #BDD8DD",
"@.	c #7092AE",
"#.	c #1E2B47",
"$.	c #213945",
"%.	c #4B94AF",
"&.	c #3D6F76",
"*.	c #42777C",
"=.	c #457E87",
"-.	c #48828A",
";.	c #4C858D",
">.	c #4D898F",
",.	c #4E8790",
"'.	c #508891",
").	c #538A94",
"!.	c #649BA4",
"~.	c #79A8AF",
"{.	c #6EA3AB",
"].	c #7AA8B0",
"^.	c #93B6D6",
"/.	c #1C2944",
"(.	c #4B545A",
"_.	c #759CAA",
":.	c #274A50",
"<.	c #2E5558",
"[.	c #376569",
"}.	c #3B6D71",
"|.	c #42767D",
"1.	c #457B82",
"2.	c #487D86",
"3.	c #497F88",
"4.	c #4B8089",
"5.	c #4B818B",
"6.	c #538993",
"7.	c #598E96",
"8.	c #86A9C8",
"9.	c #79797A",
"0.	c #FCFCFC",
"a.	c #E5E9E9",
"b.	c #9DADB0",
"c.	c #63787A",
"d.	c #3B5C5F",
"e.	c #2D5255",
"f.	c #335B60",
"g.	c #39656B",
"h.	c #3E6D73",
"i.	c #42757C",
"j.	c #44777E",
"k.	c #467881",
"l.	c #487B84",
"m.	c #799DBB",
"n.	c #1C2A45",
"o.	c #767777",
"p.	c #F8F8F8",
"q.	c #F3F3F3",
"r.	c #EFEFEF",
"s.	c #E2E4E4",
"t.	c #C5CCCD",
"u.	c #9BA9AA",
"v.	c #546F72",
"w.	c #375457",
"x.	c #315559",
"y.	c #345D60",
"z.	c #376368",
"A.	c #3D6A70",
"B.	c #417178",
"C.	c #43747B",
"D.	c #6D93B2",
"E.	c #757576",
"F.	c #F2F2F2",
"G.	c #EEEEEE",
"H.	c #EBEBEB",
"I.	c #E7E7E7",
"J.	c #E1E1E1",
"K.	c #DDDDDD",
"L.	c #DCDCDC",
"M.	c #BCC2C3",
"N.	c #8E9D9F",
"O.	c #5C7477",
"P.	c #315054",
"Q.	c #2C4D51",
"R.	c #32585D",
"S.	c #375E63",
"T.	c #6086A5",
"U.	c #717272",
"V.	c #EAEAEA",
"W.	c #E8E8E8",
"X.	c #E6E6E6",
"Y.	c #E2E2E2",
"Z.	c #DEDEDE",
"`.	c #DADADA",
" +	c #D4D4D4",
".+	c #D0D0D0",
"++	c #CCCCCC",
"@+	c #C2C4C5",
"#+	c #BBBEBF",
"$+	c #869799",
"%+	c #546A6D",
"&+	c #3B575B",
"*+	c #4D7490",
"=+	c #1D2A46",
"-+	c #565656",
";+	c #C0C0C0",
">+	c #DFDFDF",
",+	c #D9D9D9",
"'+	c #D5D5D5",
")+	c #D1D1D1",
"!+	c #CDCDCD",
"~+	c #C8C8C8",
"{+	c #C3C3C3",
"]+	c #BEBEBE",
"^+	c #BCBCBC",
"/+	c #A8B0B1",
"(+	c #44596B",
"_+	c #202E49",
":+	c #323232",
"<+	c #787878",
"[+	c #A2A2A2",
"}+	c #CBCBCB",
"|+	c #CFCFCF",
"1+	c #BFBFBF",
"2+	c #BBBBBB",
"3+	c #B6B6B6",
"4+	c #B1B1B1",
"5+	c #ABABAB",
"6+	c #495468",
"7+	c #202D4A",
"8+	c #242424",
"9+	c #383838",
"0+	c #727272",
"a+	c #A8A8A8",
"b+	c #B8B8B8",
"c+	c #B2B2B2",
"d+	c #AEAEAE",
"e+	c #A9A9A9",
"f+	c #495264",
"g+	c #202D49",
"h+	c #404040",
"i+	c #5C5C5C",
"j+	c #9A9A9A",
"k+	c #B0B0B0",
"l+	c #ADADAD",
"m+	c #AAAAAA",
"n+	c #A5A5A5",
"o+	c #485265",
"p+	c #191919",
"q+	c #1F1F1F",
"r+	c #6D6D6D",
"s+	c #818181",
"t+	c #9D9D9D",
"u+	c #495669",
"v+	c #1E2C45",
"w+	c #343434",
"x+	c #1D232A",
"y+	c #0F1823",
"                                        ",
"        . + @ # $                       ",
"      % & * = - ; > , '       '         ",
"      ) ! ~ { ] ^ / ( _ : < [ } | 1     ",
"      2 3 4 5 6 7 8 9 0 a b c d e f g   ",
"      h i j k l m n o p q r s t u v w x ",
"      y z A B C D E F G H I J K L M N O ",
"      P Q R S T U V W X Y Z `  ...+.@.#.",
"      $.%.&.*.=.-.;.>.,.'.).!.~.{.].^./.",
"      (._.:.<.[.}.|.1.2.3.3.4.5.6.7.8./.",
"      9.0.a.b.c.d.e.f.g.h.i.j.k.l.l.m.n.",
"      o.p.q.r.s.t.u.v.w.x.y.z.A.B.C.D.n.",
"      E.F.G.H.I.J.K.L.M.N.O.P.Q.R.S.T.n.",
"      U.V.W.X.Y.Z.`. +.+++@+#+$+%+&+*+=+",
"      -+;+K.>+K.,+'+)+!+~+{+]+^+^+/+(+_+",
"        ' :+<+[+}+|+}+~+{+1+2+3+4+5+6+7+",
"              8+9+0+a+b+]+2+3+c+d+e+f+g+",
"                    ' h+i+j+k+l+m+n+o+g+",
"                          p+q+r+s+t+u+v+",
"                                  w+x+y+"};
