/* XPM */
static const char * ft_image_big_xpm[] = {
"48 48 511 2",
"  	c None",
". 	c #555555",
"+ 	c #525252",
"@ 	c #515151",
"# 	c #4E4E4E",
"$ 	c #4D4D4D",
"% 	c #4B4B4B",
"& 	c #4A4A4A",
"* 	c #484848",
"= 	c #464646",
"- 	c #444444",
"; 	c #424242",
"> 	c #404040",
", 	c #3E3E3E",
"' 	c #3C3C3C",
") 	c #3A3A3A",
"! 	c #383838",
"~ 	c #363636",
"{ 	c #343434",
"] 	c #323232",
"^ 	c #303030",
"/ 	c #2E2E2E",
"( 	c #000000",
"_ 	c #B6B6B6",
": 	c #B9B9B9",
"< 	c #B5B5B5",
"[ 	c #AAAAAA",
"} 	c #A0A0A0",
"| 	c #939393",
"1 	c #868686",
"2 	c #545454",
"3 	c #FAFAFA",
"4 	c #F2F2F2",
"5 	c #ECECEC",
"6 	c #E1E1E1",
"7 	c #CACACA",
"8 	c #535353",
"9 	c #C5C5C5",
"0 	c #F3F3F3",
"a 	c #EDEDED",
"b 	c #E7E7E7",
"c 	c #F4F4F4",
"d 	c #505050",
"e 	c #595959",
"f 	c #4F4F4F",
"g 	c #5C5C5C",
"h 	c #F9F9F9",
"i 	c #616161",
"j 	c #DCDCDC",
"k 	c #C1C1C4",
"l 	c #BABABC",
"m 	c #B2B2B4",
"n 	c #AAAAAC",
"o 	c #A3A3A4",
"p 	c #9B9B9C",
"q 	c #939394",
"r 	c #F5F5F5",
"s 	c #8C8C8C",
"t 	c #848484",
"u 	c #7D7D7B",
"v 	c #757573",
"w 	c #6D6D6B",
"x 	c #666663",
"y 	c #F6F6F6",
"z 	c #F8F8F8",
"A 	c #646464",
"B 	c #C2C2C2",
"C 	c #464642",
"D 	c #3E3E42",
"E 	c #3E3E3A",
"F 	c #36363A",
"G 	c #363632",
"H 	c #2A2A2A",
"I 	c #262626",
"J 	c #222226",
"K 	c #EAEAEA",
"L 	c #EFEFEF",
"M 	c #696969",
"N 	c #4C4C4C",
"O 	c #3F3F3F",
"P 	c #3B3B3B",
"Q 	c #5E5E5E",
"R 	c #626262",
"S 	c #5A5A5A",
"T 	c #565656",
"U 	c #525254",
"V 	c #4E4E4C",
"W 	c #4A4A4C",
"X 	c #464644",
"Y 	c #3E3E3C",
"Z 	c #3A3A3C",
"` 	c #363634",
" .	c #323234",
"..	c #CFCFCF",
"+.	c #D5D5D5",
"@.	c #E9E9E8",
"#.	c #C5C4C2",
"$.	c #BABAB7",
"%.	c #A9A9A4",
"&.	c #9F9D95",
"*.	c #8C897F",
"=.	c #797771",
"-.	c #696561",
";.	c #5C5957",
">.	c #403F3F",
",.	c #5A5A5E",
"'.	c #666664",
").	c #5E5E5C",
"!.	c #6A6A6C",
"~.	c #424244",
"{.	c #6E6E6C",
"].	c #565654",
"^.	c #626260",
"/.	c #C1C1C1",
"(.	c #F7F7F7",
"_.	c #E2E2E2",
":.	c #D4D4D3",
"<.	c #B8B7B3",
"[.	c #A8A6A2",
"}.	c #9A9690",
"|.	c #89847D",
"1.	c #535250",
"2.	c #2E2E2C",
"3.	c #262622",
"4.	c #ABABAB",
"5.	c #B8B8B8",
"6.	c #E0E0E0",
"7.	c #D4D4D4",
"8.	c #D0CDCB",
"9.	c #BCBAB7",
"0.	c #AEABA6",
"a.	c #A29F95",
"b.	c #938E84",
"c.	c #666461",
"d.	c #B3B3B4",
"e.	c #5A5A56",
"f.	c #565652",
"g.	c #626264",
"h.	c #5A5A5C",
"i.	c #222222",
"j.	c #5A5A58",
"k.	c #CECECE",
"l.	c #F5F5F4",
"m.	c #EAEAE9",
"n.	c #E0DFDD",
"o.	c #D7D4D1",
"p.	c #D0CEC9",
"q.	c #C6C1B7",
"r.	c #B3ADA2",
"s.	c #A29C94",
"t.	c #78726D",
"u.	c #1A1A1A",
"v.	c #1E1E1A",
"w.	c #1E1E1E",
"x.	c #2A2A2C",
"y.	c #2A2A2E",
"z.	c #A6A6A6",
"A.	c #CDCDCD",
"B.	c #F9F8F6",
"C.	c #F6F4F3",
"D.	c #F2F0ED",
"E.	c #E2E0DC",
"F.	c #DFDCD6",
"G.	c #D4D0CA",
"H.	c #CFC9C0",
"I.	c #C0BBAF",
"J.	c #B3ADA4",
"K.	c #847E75",
"L.	c #ABABAC",
"M.	c #1E1E22",
"N.	c #E0FDE0",
"O.	c #C2FAC2",
"P.	c #A4F4A4",
"Q.	c #86EC86",
"R.	c #68E168",
"S.	c #4AD54A",
"T.	c #2CC52C",
"U.	c #0EB40E",
"V.	c #00A600",
"W.	c #009C00",
"X.	c #009300",
"Y.	c #008900",
"Z.	c #525250",
"`.	c #F8F7F5",
" +	c #F8F6F3",
".+	c #F7F4F0",
"++	c #F2EEE9",
"@+	c #E9E4DF",
"#+	c #E2DDD6",
"$+	c #DDD8D0",
"%+	c #D4CDC3",
"&+	c #CEC7BD",
"*+	c #C3BCAE",
"=+	c #90877D",
"-+	c #525256",
";+	c #221E22",
">+	c #D4FBD4",
",+	c #BBF7BB",
"'+	c #9FEF9F",
")+	c #83E683",
"!+	c #65DB65",
"~+	c #48CD48",
"{+	c #2ABD2A",
"]+	c #0CAA0C",
"^+	c #007F00",
"/+	c #F4F3F1",
"(+	c #F7F5F2",
"_+	c #F6F2ED",
":+	c #F2EDE7",
"<+	c #F0EAE1",
"[+	c #E8E1D9",
"}+	c #E0D9CF",
"|+	c #DBD4C9",
"1+	c #D4CBBF",
"2+	c #CCC5B7",
"3+	c #968B7D",
"4+	c #A4A4A5",
"5+	c #4E4E52",
"6+	c #A9F1A9",
"7+	c #92E992",
"8+	c #78DF78",
"9+	c #5DD35D",
"0+	c #40C340",
"a+	c #24B224",
"b+	c #079E07",
"c+	c #007500",
"d+	c #4B4B49",
"e+	c #E6E5E3",
"f+	c #F3F1EE",
"g+	c #F6F3EF",
"h+	c #F5F1EA",
"i+	c #F4EFE7",
"j+	c #F2EAE1",
"k+	c #E7E1D6",
"l+	c #DED8CD",
"m+	c #DDD5C8",
"n+	c #DBD3C5",
"o+	c #D1C9B8",
"p+	c #9C917F",
"q+	c #7FE17F",
"r+	c #68D668",
"s+	c #4FC84F",
"t+	c #35B835",
"u+	c #1AA61A",
"v+	c #006B00",
"w+	c #CDCCCA",
"x+	c #E5E3E0",
"y+	c #F2EFEB",
"z+	c #F5F1EC",
"A+	c #F4EDE3",
"B+	c #F0E8DE",
"C+	c #ECE4D8",
"D+	c #E5DCD0",
"E+	c #DED6C7",
"F+	c #DCD2C2",
"G+	c #D9D0BD",
"H+	c #9D927F",
"I+	c #9D9D9D",
"J+	c #4E4E4A",
"K+	c #54CA54",
"L+	c #3EBB3E",
"M+	c #26AA26",
"N+	c #0C980C",
"O+	c #006200",
"P+	c #434341",
"Q+	c #B4B3B2",
"R+	c #CCCAC8",
"S+	c #E4E1DE",
"T+	c #F1EDE8",
"U+	c #F4F0E9",
"V+	c #F3EBE1",
"W+	c #F2EADE",
"X+	c #EEE4D6",
"Y+	c #E5DCCE",
"Z+	c #E3DBCA",
"`+	c #DDD4C0",
" @	c #DCD0BC",
".@	c #A59984",
"+@	c #2AAC2A",
"@@	c #149B14",
"#@	c #005800",
"$@	c #16161A",
"%@	c #A6A5A4",
"&@	c #B3B2B0",
"*@	c #CBC8C5",
"=@	c #E3DFDB",
"-@	c #F0ECE5",
";@	c #F3EEE6",
">@	c #F1E8DB",
",@	c #EFE5D5",
"'@	c #EBE1D1",
")@	c #E3D9C6",
"!@	c #DDD2BE",
"~@	c #DBCFB9",
"{@	c #AA9A83",
"]@	c #959595",
"^@	c #323236",
"/@	c #424246",
"(@	c #004E00",
"_@	c #161616",
":@	c #3B3B39",
"<@	c #B3B1AE",
"[@	c #CAC7C3",
"}@	c #E2DFD8",
"|@	c #EFEAE2",
"1@	c #F3ECE2",
"2@	c #F0E6D8",
"3@	c #F0E4D4",
"4@	c #EADFCC",
"5@	c #E4D8C3",
"6@	c #E2D6BF",
"7@	c #DACEB6",
"8@	c #AA9981",
"9@	c #004400",
"0@	c #1A1A1E",
"a@	c #A4A2A0",
"b@	c #B2AFAB",
"c@	c #C9C6C0",
"d@	c #E1DDD5",
"e@	c #EFE8DE",
"f@	c #F2EAE0",
"g@	c #EFE3D1",
"h@	c #EDE0CB",
"i@	c #EBDCC5",
"j@	c #E2D6BD",
"k@	c #E0D2B9",
"l@	c #A9987F",
"m@	c #8E8E8E",
"n@	c #003A00",
"o@	c #121212",
"p@	c #343432",
"q@	c #B1AEA9",
"r@	c #C8C4BE",
"s@	c #E1DBD2",
"t@	c #EEE6DC",
"u@	c #F1E9DD",
"v@	c #EEE1CE",
"w@	c #EBDBC3",
"x@	c #E1D3BA",
"y@	c #E1D2B6",
"z@	c #AA997E",
"A@	c #003100",
"B@	c #A3A09C",
"C@	c #B1ADA7",
"D@	c #C8C3BA",
"E@	c #E0D9D0",
"F@	c #EDE5D9",
"G@	c #F0E7DA",
"H@	c #ECDEC8",
"I@	c #EADAC0",
"J@	c #E7D5BB",
"K@	c #E0D0B3",
"L@	c #AF9B7F",
"M@	c #878786",
"N@	c #002700",
"O@	c #161612",
"P@	c #0E0E0E",
"Q@	c #2C2C2A",
"R@	c #B1ABA4",
"S@	c #C8C1B9",
"T@	c #DFD8CD",
"U@	c #ECE3D6",
"V@	c #EFE5D7",
"W@	c #EADBC2",
"X@	c #E9D6B9",
"Y@	c #E0CEB0",
"Z@	c #AE997D",
"`@	c #3A3A3E",
" #	c #001D00",
".#	c #A29E97",
"+#	c #B0AAA3",
"@#	c #C7C0B6",
"##	c #DFD6CA",
"$#	c #EBE1D3",
"%#	c #EFE3D3",
"&#	c #EAD9BE",
"*#	c #E8D5B8",
"=#	c #E4D0B0",
"-#	c #AE977A",
";#	c #7F7F7E",
">#	c #2E2E2A",
",#	c #001300",
"'#	c #0E0E0A",
")#	c #242422",
"!#	c #AFA9A1",
"~#	c #C6BFB4",
"{#	c #DED4C7",
"]#	c #EBDFCF",
"^#	c #EEE2D0",
"/#	c #E9D7BB",
"(#	c #E4D1AF",
"_#	c #AE9679",
":#	c #A19C94",
"<#	c #AEA89E",
"[#	c #C5BDB1",
"}#	c #DED3C4",
"|#	c #EADECC",
"1#	c #EDE0CD",
"2#	c #E7D4B5",
"3#	c #E8D3AD",
"4#	c #B49A79",
"5#	c #787877",
"6#	c #121216",
"7#	c #0A0A0A",
"8#	c #1D1D1B",
"9#	c #AEA69C",
"0#	c #C5BBAE",
"a#	c #DDD2C1",
"b#	c #E9DCC9",
"c#	c #ECDFCA",
"d#	c #E6D2B2",
"e#	c #E6D0AF",
"f#	c #B49675",
"g#	c #0A0A0E",
"h#	c #060606",
"i#	c #A09990",
"j#	c #AEA599",
"k#	c #C4BAAC",
"l#	c #DCD0BE",
"m#	c #E8DBC7",
"n#	c #EBDDC7",
"o#	c #E5CEAC",
"p#	c #B59974",
"q#	c #71716F",
"r#	c #2A2A26",
"s#	c #22221E",
"t#	c #151513",
"u#	c #ADA497",
"v#	c #C4B9A9",
"w#	c #DBCFBB",
"x#	c #E7D9C4",
"y#	c #EADBC4",
"z#	c #E4CDA9",
"A#	c #B99D74",
"B#	c #020206",
"C#	c #9F978B",
"D#	c #ACA395",
"E#	c #C3B8A7",
"F#	c #DACDB9",
"G#	c #E6D7C1",
"H#	c #E9DAC1",
"I#	c #E3CBA6",
"J#	c #B99E74",
"K#	c #696967",
"L#	c #1A1A16",
"M#	c #12120E",
"N#	c #0D0D0B",
"O#	c #ABA293",
"P#	c #C3B7A5",
"Q#	c #D9CBB6",
"R#	c #E5D6BE",
"S#	c #E9D8BD",
"T#	c #E2C9A3",
"U#	c #B99970",
"V#	c #7A7877",
"W#	c #A2998B",
"X#	c #ADA393",
"Y#	c #C3B6A3",
"Z#	c #D8CAB3",
"`#	c #E5D4BA",
" $	c #E8D6BA",
".$	c #E1C7A0",
"+$	c #B7996E",
"@$	c #242424",
"#$	c #84827F",
"$$	c #B2B0AD",
"%$	c #B0ADA8",
"&$	c #B0ABA3",
"*$	c #AEA8A0",
"=$	c #ADA59B",
"-$	c #ACA396",
";$	c #B5A998",
">$	c #C8BBA5",
",$	c #DBCBB2",
"'$	c #E5D3B8",
")$	c #E1C59C",
"!$	c #B6986D",
"~$	c #292929",
"{$	c #959490",
"]$	c #C2B6A4",
"^$	c #D3C3AB",
"/$	c #DECDB2",
"($	c #E6D3B6",
"_$	c #B6976B",
":$	c #2D2D2D",
"<$	c #A7A49F",
"[$	c #E4D1B5",
"}$	c #E6D3B4",
"|$	c #2F2F2F",
"1$	c #B0ADA6",
"2$	c #B4B0A8",
"3$	c #B6B0A6",
"4$	c #BBB3A7",
"5$	c #BCB2A4",
"6$	c #BBB0A1",
"7$	c #BBAF9F",
"8$	c #BAAD9C",
"9$	c #BAAD9A",
"0$	c #BAAC96",
"a$	c #B9AA95",
"b$	c #B9A891",
"c$	c #B9A88F",
"d$	c #B9A58B",
"e$	c #B8A58A",
"f$	c #B8A386",
"g$	c #B8A284",
"h$	c #BDA27C",
"i$	c #BCA17B",
"j$	c #BCA179",
"k$	c #BBA076",
"l$	c #B29161",
"                                                                                                ",
"                                                                                                ",
"                                                                                                ",
"                            . + @ # $ % & * = - ; > , ' ) ! ~ { ] ^ / (                         ",
"                            . _ : : : : : : : : : : : : : < < [ } | 1 = (                       ",
"                            2 : 3 3 3 3 3 3 3 3 3 3 3 3 3 3 4 5 6 7 < & 1 (                     ",
"                            8 : 3 3 3 3 3 3 3 3 3 3 3 3 3 3 3 4 5 6 7 $ 9 1 (                   ",
"                            + : 3 3 3 3 3 3 3 3 3 3 3 3 3 3 3 3 0 a 6 @ b 9 1 (                 ",
"                            @ : 3 3 3 3 3 3 3 3 3 3 3 3 3 3 3 3 3 c 5 2 3 b 9 1 (               ",
"                            d : 3 3 3 3 3 3 3 3 3 3 3 3 3 3 3 3 3 3 4 e 3 3 b 9 1 (             ",
"                            f : 3 3 3 3 3 3 3 3 3 3 3 3 3 3 3 3 3 3 3 g 5 3 3 b 9 1 (           ",
"                            $ : h 3 h 3 h 3 h 3 h 3 h 3 3 3 3 3 3 3 3 i j 5 3 3 b 9 1 (         ",
"        k   l   m   n   o   p < q r s r t r u r v r w r x r y z h 3 3 A B j 5 3 3 b 9 1 (       ",
"      k , C C ; ; ; D E ) F F ~ ] ] ] G ] / / / H H I I J x K L y h 3 M d N * - O P ~ ] / (     ",
"        C Q R Q S T U V V V W X X W V X Y Y Y Z Z `  . .H ..+.6 L z 3 @.#.$.%.&.*.=.-.;.>.(     ",
"      l ; Q S ,.S T V V W X X X X '.'.).!.~.~.'.'.{.]. .I ^./.+.K y 3 (._.:.#.<.[.}.|.=.1.(     ",
"        ; Q ,.S T T V W W W X ~.~.X ~.Y Y Y ` Z X X Z 2.3.4.5...b r h h y 6.7.8.9.0.a.b.c.(     ",
"      d.D S e.T f.+ W W W X X ~.~.g.'.).{.g.` ~.h.).W 2.i.j.< k.b r h 3 l.m.n.o.p.q.r.s.t.(     ",
"        ; S T T + / u.u.v.w.w.w.i.i.I I I I H x.] / / y.i.z.< A.b r h B.C.D.E.F.G.H.I.J.K.(     ",
"      L., T + + # M.N.N.O.P.Q.R.S.T.U.V.W.X.Y.2./ y.H H i.Z.< A.b r `. +.+++@+#+$+%+&+*+=+(     ",
"        ) -++ + & ;+N.>+,+'+)+!+~+{+]+W.X.Y.^+ .y.H I I u.z.< A.b /+(+.+_+:+<+[+}+|+1+2+3+(     ",
"      4+) 5+# # & w.O.,+6+7+8+9+0+a+b+X.Y.^+c+` H I i.i.w.d+< A.e+f+g+_+h+i+j+k+l+m+n+o+p+(     ",
"        ) # # & & i.P.'+7+q+r+s+t+u+X.Y.^+c+v+` I J i.w.u.z.< w+x+y+z+h+i+A+B+C+D+E+F+G+H+(     ",
"      I+) J+& & = i.Q.)+8+r+K+L+M+N+Y.^+c+v+O+Z I i.i.i.u.P+Q+R+S+T+U+i+A+V+W+X+Y+Z+`+ @.@(     ",
"        ) & & = C i.R.!+9+s+L++@@@Y.^+c+v+O+#@Y i.w.w.u.$@%@&@*@=@-@;@A+V+W+>@,@'@)@!@~@{@(     ",
"      ]@^@& = = /@J S.~+0+t+M+@@Y.^+c+v+O+#@(@~.i.v.w.u._@:@<@[@}@|@1@V+W+>@2@3@4@5@6@7@8@(     ",
"        ~ = = /@; 3.T.{+a+u+N+Y.^+c+v+O+#@(@9@~.w.w.0@u._@a@b@c@d@e@f@W+>@2@3@g@h@i@j@k@l@(     ",
"      m@] = /@; ; I U.]+b+X.Y.^+c+v+O+#@(@9@n@X 0@u.u._@o@p@q@r@s@t@u@>@2@3@g@v@h@w@x@y@z@(     ",
"        ] /@; , , I V.W.X.Y.^+c+v+O+#@(@9@n@A@W 0@u._@_@o@B@C@D@E@F@G@2@3@g@v@h@H@I@J@K@L@(     ",
"      M@] ; E , ) H W.X.Y.^+c+v+O+#@(@9@n@A@N@V u.O@o@o@P@Q@R@S@T@U@V@3@g@v@h@H@i@W@X@Y@Z@(     ",
"        / , , `@) y.X.Y.^+c+v+O+#@(@9@n@A@N@ #V _@_@O@o@P@.#+#@###$#%#g@v@h@H@i@W@&#*#=#-#(     ",
"      ;#/ , E ~ ~ >#Y.^+c+v+O+#@(@9@n@A@N@ #,#U _@o@P@'#P@)#!#~#{#]#^#v@h@H@i@W@&#/#*#(#_#(     ",
"        / ) ) ~ ~ x.2. .` ` Z Y Y ~.X W V V V U o@o@P@P@P@:#<#[#}#|#1#h@H@i@W@&#/#*#2#3#4#(     ",
"      5#H ) ) ~ ^@] >#y.H H 3.J i.w.w.0@u.$@_@6#P@P@P@7#7#8#9#0#a#b#c#H@i@W@&#/#*#2#d#e#f#(     ",
"        H ~ G ^@] / y.y.3.I i.i.w.w.u.u._@_@o@o@P@P@g#7#h#i#j#k#l#m#n#i@W@&#/#*#2#d#e#o#p#(     ",
"      q#r#~ ^@] / / H I I J i.s#w.0@u._@_@_@6#P@P@g#7#h#h#t#u#v#w#x#y#W@&#/#*#2#d#e#o#z#A#(     ",
"        I ~ ] / / y.I I J i.w.w.u.u._@6#6#P@P@g#P@7#h#B#h#C#D#E#F#G#H#&#/#*#2#d#e#o#z#I#J#(     ",
"      K#I I i.i.s#s#w.w.0@_@L#_@_@6#6#6#M#P@g#'#g#7#7#h#h#N#O#P#Q#R#S#/#*#2#d#e#o#z#I#T#U#(     ",
"        x   ^.  j.  Z.  d+  P+V#:@a@p@B@Q@.#)#:#8#i#t#C#N#W#X#Y#Z#`# $*#2#d#e#o#z#I#T#.$+$(     ",
"                            @$#$$$b@%$C@&$+#*$<#=$j#-$D#O#X#;$>$,$'$*#2#d#e#o#z#I#T#.$)$!$(     ",
"                            ~${$[@c@r@D@S@@#~#[#0#k#v#E#]$Y#>$^$/$($2#d#e#o#z#I#T#.$)$)$_$(     ",
"                            :$<$}@d@s@E@T@##{#}#a#l#w#F#Q#Z#,$/$[$}$d#e#o#z#I#T#.$)$)$)$_$(     ",
"                            |$1$|@e@t@F@U@$#]#|#b#m#x#G#R#`#'$($}$d#e#o#z#I#T#.$)$)$)$)$_$(     ",
"                            / 2$1@V+u@>@V@3@^#v@c#H@y#W@&#/#*#2#d#e#o#z#I#T#.$)$)$)$)$)$_$(     ",
"                            / 3$4$5$6$7$8$9$0$a$b$c$d$e$f$g$g$h$i$j$k$A#J#U#+$!$_$_$_$_$l$(     ",
"                            ( ( ( ( ( ( ( ( ( ( ( ( ( ( ( ( ( ( ( ( ( ( ( ( ( ( ( ( ( ( ( (     ",
"                                                                                                ",
"                                                                                                "};
