/* XPM */
static const char * ft_image_xpm[] = {
"20 20 300 2",
"  	c None",
". 	c #8A8A8A",
"+ 	c #969696",
"@ 	c #8F8F8F",
"# 	c #8C8C8C",
"$ 	c #898989",
"% 	c #868686",
"& 	c #7C7C7C",
"* 	c #717171",
"= 	c #606060",
"- 	c #323232",
"; 	c #E7E7E7",
"> 	c #F1F1F1",
", 	c #EFEFEF",
"' 	c #E9E9E9",
") 	c #D3D3D3",
"! 	c #787878",
"~ 	c #535353",
"{ 	c #919191",
"] 	c #F2F2F2",
"^ 	c #FFFFFF",
"/ 	c #FEFEFE",
"( 	c #F7F7F7",
"_ 	c #CECECE",
": 	c #5B5B5B",
"< 	c #909090",
"[ 	c #949494",
"} 	c #F8F8F8",
"| 	c #D0D0D0",
"1 	c #808080",
"2 	c #DADADA",
"3 	c #D6D6D6",
"4 	c #CACACA",
"5 	c #C6C6C6",
"6 	c #D6D6D5",
"7 	c #E0E0E0",
"8 	c #FBFBFB",
"9 	c #9B9B9B",
"0 	c #777778",
"a 	c #545453",
"b 	c #4C4C4C",
"c 	c #474745",
"d 	c #424242",
"e 	c #464645",
"f 	c #494948",
"g 	c #3F3F3F",
"h 	c #404040",
"i 	c #3E3E3D",
"j 	c #393939",
"k 	c #B2B2B1",
"l 	c #F5F5F5",
"m 	c #C3C3C3",
"n 	c #828281",
"o 	c #757471",
"p 	c #615F5D",
"q 	c #4F4E4D",
"r 	c #191818",
"s 	c #777779",
"t 	c #585858",
"u 	c #545455",
"v 	c #4A4A4A",
"w 	c #464647",
"x 	c #474747",
"y 	c #4B4B4A",
"z 	c #444443",
"A 	c #393938",
"B 	c #A4A4A3",
"C 	c #EEEEEE",
"D 	c #FDFDFD",
"E 	c #ECECEB",
"F 	c #D6D5D2",
"G 	c #B8B5AF",
"H 	c #95918B",
"I 	c #2D2B2A",
"J 	c #7A7A7B",
"K 	c #3E3E3F",
"L 	c #778678",
"M 	c #779278",
"N 	c #588A58",
"O 	c #3D7F3E",
"P 	c #206F20",
"Q 	c #176217",
"R 	c #253F26",
"S 	c #252525",
"T 	c #303030",
"U 	c #A2A2A2",
"V 	c #EDEDED",
"W 	c #FBFAF9",
"X 	c #F6F5F2",
"Y 	c #ECE9E5",
"Z 	c #DCD8D0",
"` 	c #BEB8AE",
" .	c #3B3935",
"..	c #4E4E4E",
"+.	c #3C3C3D",
"@.	c #B9E0BA",
"#.	c #B4F3B4",
"$.	c #7CE17C",
"%.	c #49C749",
"&.	c #11A311",
"*.	c #008900",
"=.	c #1F4E20",
"-.	c #262627",
";.	c #2D2D2D",
">.	c #A6A6A5",
",.	c #EBEAE8",
"'.	c #FAF6F2",
").	c #F4EFE9",
"!.	c #F1ECE3",
"~.	c #E7E0D7",
"{.	c #D3CCC0",
"].	c #433F39",
"^.	c #707071",
"/.	c #3A3A3B",
"(.	c #8FD78F",
"_.	c #8EE68E",
":.	c #63CF63",
"<.	c #36B236",
"[.	c #098E09",
"}.	c #007500",
"|.	c #224A23",
"1.	c #232323",
"2.	c #2B2B2A",
"3.	c #A3A2A0",
"4.	c #E8E5E1",
"5.	c #F7F2EB",
"6.	c #F4EDE4",
"7.	c #F0E9DE",
"8.	c #EAE3D7",
"9.	c #D9CFBE",
"0.	c #443F38",
"a.	c #5F5F5F",
"b.	c #464646",
"c.	c #383838",
"d.	c #59C359",
"e.	c #55CB55",
"f.	c #37B037",
"g.	c #149114",
"h.	c #007400",
"i.	c #005F00",
"j.	c #254526",
"k.	c #1E1E1D",
"l.	c #222222",
"m.	c #94928E",
"n.	c #E6E1DA",
"o.	c #F4EEE4",
"p.	c #F3EBDE",
"q.	c #EEE5D6",
"r.	c #ECE2D2",
"s.	c #DCD0BC",
"t.	c #474138",
"u.	c #5B5B5C",
"v.	c #414143",
"w.	c #363637",
"x.	c #2AAA2A",
"y.	c #22AB22",
"z.	c #0E8E0E",
"A.	c #017601",
"B.	c #006100",
"C.	c #004C00",
"D.	c #28412A",
"E.	c #1A1A1A",
"F.	c #1F1F1F",
"G.	c #908D88",
"H.	c #E4DED4",
"I.	c #F2E8D7",
"J.	c #EFE2D0",
"K.	c #EADECA",
"L.	c #DDCFB7",
"M.	c #464036",
"N.	c #5C5C5C",
"O.	c #343435",
"P.	c #068D06",
"Q.	c #008A00",
"R.	c #003700",
"S.	c #2C3C2D",
"T.	c #161615",
"U.	c #1C1C1B",
"V.	c #938E88",
"W.	c #E2DACE",
"X.	c #F1E6D6",
"Y.	c #F0E4D0",
"Z.	c #EEE0C9",
"`.	c #E9DAC1",
" +	c #DDCCB2",
".+	c #484035",
"++	c #595958",
"@+	c #3A3A39",
"#+	c #106B10",
"$+	c #0D670D",
"%+	c #0E580F",
"&+	c #0F4B10",
"*+	c #113D11",
"=+	c #122F13",
"-+	c #363E38",
";+	c #111111",
">+	c #1A1A19",
",+	c #979289",
"'+	c #E0D6C6",
")+	c #EFE2CF",
"!+	c #EEDFC8",
"~+	c #ECDBC2",
"{+	c #E8D6BA",
"]+	c #DCC9AA",
"^+	c #473F33",
"/+	c #525250",
"(+	c #363635",
"_+	c #313133",
":+	c #2D2D2E",
"<+	c #2C2C2D",
"[+	c #2B2B2B",
"}+	c #2A2A2B",
"|+	c #29292A",
"1+	c #282829",
"2+	c #0E0E0E",
"3+	c #171616",
"4+	c #958E84",
"5+	c #DED2C0",
"6+	c #EDDEC7",
"7+	c #ECDCC1",
"8+	c #EAD7BC",
"9+	c #E8D4B5",
"0+	c #DCC7A6",
"a+	c #473E31",
"b+	c #434341",
"c+	c #2F2F30",
"d+	c #2C2C2C",
"e+	c #272727",
"f+	c #222223",
"g+	c #1E1E1E",
"h+	c #1A1A1B",
"i+	c #151517",
"j+	c #121213",
"k+	c #0E0E0F",
"l+	c #0A0A0B",
"m+	c #837C70",
"n+	c #DECFB9",
"o+	c #EBDAC0",
"p+	c #E9D7BA",
"q+	c #E8D3B4",
"r+	c #E6CFAD",
"s+	c #DBC29E",
"t+	c #645642",
"u+	c #4C4C4B",
"v+	c #545352",
"w+	c #5D5B59",
"x+	c #62605B",
"y+	c #605D57",
"z+	c #494640",
"A+	c #4A463F",
"B+	c #B8AC99",
"C+	c #E0D0B6",
"D+	c #E9D6BA",
"E+	c #E8D3B3",
"F+	c #E5CBA6",
"G+	c #D9BE97",
"H+	c #64553E",
"I+	c #6E6E6E",
"J+	c #CBC7C2",
"K+	c #D2CCC2",
"L+	c #D0C9BB",
"M+	c #CFC5B6",
"N+	c #CFC2B0",
"O+	c #CEC0AB",
"P+	c #D7C7AE",
"Q+	c #E6D3B6",
"R+	c #E8D2B3",
"S+	c #E6CEAC",
"T+	c #E4CBA6",
"U+	c #E3C8A2",
"V+	c #D9BC94",
"W+	c #64533B",
"X+	c #767675",
"Y+	c #DDD9D1",
"Z+	c #E3DCCF",
"`+	c #E2D7C8",
" @	c #E2D4C0",
".@	c #DFD2BF",
"+@	c #DECEB5",
"@@	c #DECBAF",
"#@	c #DDC9A9",
"$@	c #DDC6A5",
"%@	c #D9BF98",
"&@	c #D1B489",
"*@	c #63523B",
"=@	c #3F3C37",
"-@	c #6A645D",
";@	c #6A625A",
">@	c #686056",
",@	c #696155",
"'@	c #665D51",
")@	c #665D4E",
"!@	c #665A4B",
"~@	c #675948",
"{@	c #665844",
"]@	c #635542",
"^@	c #635641",
"/@	c #64543D",
"(@	c #63543B",
"_@	c #342C1E",
"          . + @ # $ % & * = -           ",
"          + ; > > > > , ' ) ! ~         ",
"          { ] ^ ^ ^ ^ / ^ ( $ _ :       ",
"          < > / / / / / ^ ^ [ } | :     ",
"          1 2 3 4 5 6 7 8 / 9 2 } _ ~   ",
"0 a ~ b c d e f g h i j k l m n o p q r ",
"s t u v w d x y z d e A B C D E F G H I ",
"J ~ K L M N O P Q R S T U V W X Y Z `  .",
"0 ..+.@.#.$.%.&.*.=.-.;.>.,.'.).!.~.{.].",
"^.v /.(._.:.<.[.}.|.1.2.3.4.5.6.7.8.9.0.",
"a.b.c.d.e.f.g.h.i.j.k.l.m.n.o.p.q.r.s.t.",
"u.v.w.x.y.z.A.B.C.D.E.F.G.H.p.I.J.K.L.M.",
"N.i O.P.Q.h.B.C.R.S.T.U.V.W.X.Y.Z.`. +.+",
"++@+- #+$+%+&+*+=+-+;+>+,+'+)+!+~+{+]+^+",
"/+(+_+:+<+[+}+|+|+1+2+3+4+5+6+7+8+9+0+a+",
"b+c+d+e+f+g+h+i+j+k+l+2+m+n+o+p+q+r+s+t+",
"          u+v+w+x+y+z+A+B+C+D+E+r+F+G+H+",
"          I+J+K+L+M+N+O+P+Q+R+S+T+U+V+W+",
"          X+Y+Z+`+ @.@+@@@#@$@s+%@V+&@*@",
"          =@-@;@>@,@'@)@!@~@{@]@^@/@(@_@"};
