/* XPM */
static const char * gohome_xpm[] = {
"22 22 108 2",
"  	c None",
". 	c #000000",
"+ 	c #450802",
"@ 	c #F5CAC4",
"# 	c #820402",
"$ 	c #3F3F3F",
"% 	c #EF998F",
"& 	c #502C22",
"* 	c #F1A49A",
"= 	c #E8786C",
"- 	c #2A0000",
"; 	c #EE9C92",
"> 	c #A43327",
", 	c #CD4135",
"' 	c #A02014",
") 	c #300202",
"! 	c #870F05",
"~ 	c #514444",
"{ 	c #870E04",
"] 	c #C02D20",
"^ 	c #270000",
"/ 	c #EE9D93",
"( 	c #AFACAC",
"_ 	c #DCDCDC",
": 	c #B81F13",
"< 	c #EE9B91",
"[ 	c #FAFAFA",
"} 	c #B3180B",
"| 	c #260000",
"1 	c #E27C70",
"2 	c #B2AFAF",
"3 	c #E0E0E0",
"4 	c #200000",
"5 	c #D35E52",
"6 	c #A8A5A5",
"7 	c #F8F8F8",
"8 	c #EAEAEA",
"9 	c #A4A1A1",
"0 	c #DD6A5E",
"a 	c #A1A1A1",
"b 	c #D3D3D3",
"c 	c #F7F7F7",
"d 	c #D8D8D8",
"e 	c #AAAAAA",
"f 	c #1E0000",
"g 	c #420505",
"h 	c #560701",
"i 	c #1C1818",
"j 	c #7E7E7E",
"k 	c #E3E3E3",
"l 	c #F8F3F0",
"m 	c #A8754F",
"n 	c #93542F",
"o 	c #722909",
"p 	c #5A1E08",
"q 	c #E9E9E9",
"r 	c #BDBDBD",
"s 	c #676767",
"t 	c #303030",
"u 	c #380401",
"v 	c #AF917F",
"w 	c #E3C9B5",
"x 	c #D9B9A1",
"y 	c #983D02",
"z 	c #FEFEFE",
"A 	c #EFEFEF",
"B 	c #CBCBCB",
"C 	c #7A7A7A",
"D 	c #212121",
"E 	c #8E8E8E",
"F 	c #E8E8E8",
"G 	c #905E65",
"H 	c #D69861",
"I 	c #C67C3C",
"J 	c #AE5005",
"K 	c #6D2101",
"L 	c #FBF8F8",
"M 	c #919191",
"N 	c #824447",
"O 	c #CF8039",
"P 	c #C96A11",
"Q 	c #B75707",
"R 	c #742601",
"S 	c #ECE9E9",
"T 	c #8F8F8F",
"U 	c #CE8340",
"V 	c #C8670C",
"W 	c #B85808",
"X 	c #752701",
"Y 	c #692F32",
"Z 	c #C29577",
"` 	c #C76812",
" .	c #C66409",
"..	c #AB561A",
"+.	c #BC5C09",
"@.	c #BE5D08",
"#.	c #B05107",
"$.	c #722501",
"%.	c #7D7D7D",
"&.	c #B7B7B7",
"*.	c #CACACA",
"=.	c #D7D7D7",
"-.	c #5A282B",
";.	c #8E3E0F",
">.	c #913B06",
",.	c #632001",
"'.	c #D8D7D7",
").	c #CBCACA",
"                    . .                     ",
"                  + @ # +                   ",
"        $ .     + @ % % # &                 ",
"        $ .   + @ * = = = # -               ",
"        $ . + @ ; > > > > , ' )             ",
"        $ + @ * ! ~ ~ ~ ~ { ] # ^           ",
"        + @ / ! ~ ( _ _ ( ~ ! : # ^         ",
"      + @ < ! ~ ( _ [ [ _ ( ~ ! } # |       ",
"    + @ 1 ! ~ 2 3 [ [ [ [ 3 2 ~ ! } # 4     ",
"  + @ 5 ! ~ 6 3 7 7 7 7 7 7 8 9 ~ ! } # |   ",
"+ % 0 ! ~ a b 7 7 7 7 7 c c 7 d e ~ ! } # f ",
"  g h i j b k 7 l m n o p 7 l q r s t + u   ",
"      i j b k 7 n v w x y p z A B C t       ",
"      D E b F c G w H I J K L A B C t       ",
"      . M b q 7 N w O P Q R L S b T t       ",
"      . M b q 7 N x U V W X L S b M t       ",
"      . M b q 7 N x U V W X L S b M t       ",
"      . M b q 7 N x U V W X c S b M t       ",
"      . M b q 7 Y Z `  .Q X L S b M t       ",
"      . M b q 7 Y ..+.@.#.$.L S b M t       ",
"      . %.&.*.=.-.;.>.>.;.,.'.).&.%.t       ",
"        . . . . . . . . . . . . . . +       "};
