/* XPM */
static const char * next_xpm[] = {
"22 22 57 1",
" 	c None",
".	c #0C3C54",
"+	c #0E7793",
"@	c #030003",
"#	c #73BAD0",
"$	c #76BAD0",
"%	c #C4F0F8",
"&	c #5CB0C8",
"*	c #E0F4FC",
"=	c #ACEFF7",
"-	c #51A8C2",
";	c #C2EBF5",
">	c #6ED2E2",
",	c #54A9C3",
"'	c #FFFCFF",
")	c #BEE4F0",
"!	c #94DAE8",
"~	c #31C3D5",
"{	c #0AC2D2",
"]	c #D1E8F2",
"^	c #9AD7E5",
"/	c #76D1E1",
"(	c #73CEE0",
"_	c #76CFE1",
":	c #72CFE1",
"<	c #5DC6DA",
"[	c #2CC2D4",
"}	c #0BB8CD",
"|	c #F0F5FD",
"1	c #97D2E2",
"2	c #23C4D5",
"3	c #1FC3D4",
"4	c #22BBD1",
"5	c #0BB8CE",
"6	c #0CB2CA",
"7	c #0CB0C8",
"8	c #0CB5CC",
"9	c #1CBFD3",
"0	c #88D5E5",
"a	c #A5DFEB",
"b	c #3DDBDE",
"c	c #0E98B4",
"d	c #0D4660",
"e	c #8ED5E5",
"f	c #18CFD7",
"g	c #0DBFD1",
"h	c #1D84A0",
"i	c #127491",
"j	c #0E7A96",
"k	c #107E99",
"l	c #0D9FB9",
"m	c #0BBBCE",
"n	c #0E7894",
"o	c #126E8A",
"p	c #196480",
"q	c #1A607C",
"r	c #0E4D69",
"                      ",
"                      ",
"         ..           ",
"         .+@          ",
"         .#+@         ",
"         .$%+@        ",
"         .&*=+@       ",
"   .......-;>=+@      ",
"   .,*''')!!~{=+@     ",
"   .]^/(_:<[}}{=+@    ",
"   .|123{{4567890+@   ",
"   .|a}7777777{bcd@   ",
"   .]efbbfg77{bcd@    ",
"   .hiiijklm{bcd@     ",
"   .@@@@@@nfbcd@      ",
"         @ofcd@       ",
"         @pcd@        ",
"         @qd@         ",
"         @r@          ",
"         @@           ",
"                      ",
"                      "};
