/* XPM */
static const char * prev_xpm[] = {
"22 22 104 2",
"  	c None",
". 	c #0C3C54",
"+ 	c #040005",
"@ 	c #29516D",
"# 	c #050309",
"$ 	c #6FA2BC",
"% 	c #617F9B",
"& 	c #7499B5",
"* 	c #DEF3FB",
"= 	c #486E8C",
"- 	c #030208",
"; 	c #7CA3BD",
"> 	c #FFFCFF",
", 	c #83BFD5",
"' 	c #2B6D89",
") 	c #04050D",
"! 	c #7DA2BC",
"~ 	c #8DD3E3",
"{ 	c #4EB8CE",
"] 	c #0E7E9A",
"^ 	c #030003",
"/ 	c #03040A",
"( 	c #799EB8",
"_ 	c #37CBDB",
": 	c #23BDD2",
"< 	c #3DADC5",
"[ 	c #CCF0F8",
"} 	c #2C5975",
"| 	c #06111D",
"1 	c #83ADC5",
"2 	c #34D3DD",
"3 	c #14C1D3",
"4 	c #0CB5CC",
"5 	c #31C1D3",
"6 	c #7FDCEA",
"7 	c #89E4F0",
"8 	c #88E4F0",
"9 	c #83E3EF",
"0 	c #5DBED4",
"a 	c #24708E",
"b 	c #061622",
"c 	c #749CB6",
"d 	c #35CBDB",
"e 	c #15C2D4",
"f 	c #0CB1C9",
"g 	c #32C5D7",
"h 	c #64CBDD",
"i 	c #3DB0C8",
"j 	c #0E6D89",
"k 	c #071624",
"l 	c #050C16",
"m 	c #345A76",
"n 	c #1394B0",
"o 	c #0CB1C7",
"p 	c #1ED9DD",
"q 	c #11CBD9",
"r 	c #0CB0C8",
"s 	c #0EB2CA",
"t 	c #0FB2CA",
"u 	c #10A5BF",
"v 	c #0F6E8C",
"w 	c #0E526E",
"x 	c #0E8CA8",
"y 	c #0DB3C9",
"z 	c #13BED3",
"A 	c #22D1DB",
"B 	c #40E3E4",
"C 	c #44E4E5",
"D 	c #06121E",
"E 	c #0D425C",
"F 	c #0E88A4",
"G 	c #18BACB",
"H 	c #0E9CB5",
"I 	c #117492",
"J 	c #127391",
"K 	c #127491",
"L 	c #107391",
"M 	c #0F6C88",
"N 	c #0E4D69",
"O 	c #050F19",
"P 	c #06131F",
"Q 	c #0D455F",
"R 	c #0E8BA7",
"S 	c #19B4C8",
"T 	c #38E2E2",
"U 	c #0E7A96",
"V 	c #081D2D",
"W 	c #071A28",
"X 	c #071B29",
"Y 	c #061521",
"Z 	c #030309",
"` 	c #0D4660",
" .	c #0E819D",
"..	c #0E8CA7",
"+.	c #0E6985",
"@.	c #04040C",
"#.	c #0D405A",
"$.	c #0F708E",
"%.	c #0E5F7B",
"&.	c #050E18",
"*.	c #0D4C66",
"=.	c #030006",
"-.	c #040B13",
";.	c #030004",
"                                            ",
"                                            ",
"                      . +                   ",
"                    . @ #                   ",
"                  . $ % #                   ",
"                . & * = -                   ",
"              . ; > , ' )                   ",
"            . ! > ~ { ] ^ . . . . . /       ",
"          . ( > ~ _ : < ~ [ > > [ } |       ",
"        . 1 > ~ 2 3 4 5 6 7 8 9 0 a b       ",
"      . c * ~ d e f f 4 g h h h i j k       ",
"      l m n o p q r r s t t t t u v b       ",
"        | w x y p q z q A B C p q v b       ",
"          D E F G C q H I J K L M N O       ",
"            P Q R S T U V W W W X Y Z       ",
"              D `  ...+.@.                  ",
"                D #.$.%.-                   ",
"                  &.Q *.-                   ",
"                    l . =.                  ",
"                      -.;.                  ",
"                                            ",
"                                            "};
