/* XPM */
static const char * reload_xpm[] = {
"22 22 116 2",
"  	c None",
". 	c #174C00",
"+ 	c #154201",
"@ 	c #154400",
"# 	c #0E3300",
"$ 	c #0F2E00",
"% 	c #000000",
"& 	c #679951",
"* 	c #E5F1DE",
"= 	c #CDE8BF",
"- 	c #A9DD90",
"; 	c #4E9031",
"> 	c #297B05",
", 	c #27620D",
"' 	c #1C5403",
") 	c #B3EB9A",
"! 	c #6FCE45",
"~ 	c #35AE00",
"{ 	c #174D00",
"] 	c #0A2100",
"^ 	c #030800",
"/ 	c #020600",
"( 	c #010600",
"_ 	c #0C2A00",
": 	c #2B7E06",
"< 	c #040E00",
"[ 	c #ABD09C",
"} 	c #B9F29F",
"| 	c #36970B",
"1 	c #0F3100",
"2 	c #CAECBB",
"3 	c #87E65D",
"4 	c #38A309",
"5 	c #0D2801",
"6 	c #63934E",
"7 	c #C4E5B5",
"8 	c #0A1F01",
"9 	c #4D783B",
"0 	c #E5FFD3",
"a 	c #9BD27D",
"b 	c #3AC000",
"c 	c #35B000",
"d 	c #9ECD8A",
"e 	c #0F3400",
"f 	c #191919",
"g 	c #247401",
"h 	c #5FC234",
"i 	c #52E11A",
"j 	c #4CC517",
"k 	c #8FE54A",
"l 	c #A9A9A9",
"m 	c #4B4B4B",
"n 	c #1B1B1B",
"o 	c #3EBA0A",
"p 	c #C6C6C6",
"q 	c #737373",
"r 	c #8B8B8B",
"s 	c #494949",
"t 	c #171717",
"u 	c #42AE0F",
"v 	c #D5D5D5",
"w 	c #646464",
"x 	c #3A3A3A",
"y 	c #4C4C4C",
"z 	c #959595",
"A 	c #505050",
"B 	c #696969",
"C 	c #383838",
"D 	c #242424",
"E 	c #2C2C2C",
"F 	c #515151",
"G 	c #4A4A4A",
"H 	c #313131",
"I 	c #585858",
"J 	c #2D2D2D",
"K 	c #323232",
"L 	c #777777",
"M 	c #2F2F2F",
"N 	c #0B0B0B",
"O 	c #7B7B7B",
"P 	c #404040",
"Q 	c #555555",
"R 	c #262626",
"S 	c #020202",
"T 	c #909090",
"U 	c #454545",
"V 	c #5C5C5C",
"W 	c #272727",
"X 	c #ACACAC",
"Y 	c #3E3E3E",
"Z 	c #1C1C1C",
"` 	c #B8B8B8",
" .	c #6D6D6D",
"..	c #474747",
"+.	c #444444",
"@.	c #080808",
"#.	c #010101",
"$.	c #7A7A7A",
"%.	c #525252",
"&.	c #151515",
"*.	c #090909",
"=.	c #0C0C0C",
"-.	c #1E1E1E",
";.	c #7F7F7F",
">.	c #878787",
",.	c #4D4D4D",
"'.	c #212121",
").	c #4F4F4F",
"!.	c #707070",
"~.	c #888888",
"{.	c #AEAEAE",
"].	c #565656",
"^.	c #0E0E0E",
"/.	c #131313",
"(.	c #222222",
"_.	c #1F1F1F",
"                . . + @ # $ %               ",
"            . . & * = - ; > , ' +           ",
"          . & * ) ! ~ { ] ^ / ( ' _         ",
"          . * - ! : % %         % _ <       ",
"        . [ } ! | 1                 _ %     ",
"        . 2 3 4 %                     %     ",
"        + * ! ~ 5                           ",
"% + + + 6 7 ! ~ 8 % % %                     ",
"% 9 7 0 * a b c d * ~ e       % f           ",
"  % g h i j b k ~ g %       % l m n         ",
"    % g o i k ~ g %       % p q r s t       ",
"      % g u ~ g %       % v w x y z A n     ",
"        % g g %       % p B C D E F z G t   ",
"          % %       H l I s s J K H G L M N ",
"                    % % % % O P Q R S % % % ",
"                          % T U V W         ",
"    %                     % X Y Q Z         ",
"    % %                 % `  ...+.@.        ",
"      #.#.%         % % ` $.+.%.&.          ",
"        *.D =.-.% % ;.` >.,.I M @.          ",
"          % '.).!.~.{.Q ].I ^.%             ",
"              N /.n '.(._.%                 "};
