/* XPM */
static const char * stock_right_arrow_24[] = {
"22 22 64 2",
"aa c #000000",
"ab c #0f1308",
"ac c #445b2c",
"ad c #506b46",
"ae c #5b7950",
"af c #65815c",
"ag c #6c8562",
"ah c #6b8661",
"ai c #698d60",
"aj c #6b9060",
"ak c #6b9063",
"al c #778e6f",
"am c #709867",
"an c #77a16e",
"ao c #7f9f76",
"ap c #8ca782",
"ba c #a6bfa0",
"bb c #a4c3a2",
"bc c #a5c4a3",
"bd c #a7c5a4",
"be c #a8c6a5",
"bf c #aac6a7",
"bg c #a8c7a8",
"bh c #a9c7a6",
"bi c #aac7a8",
"bj c #aec5a8",
"bk c #abc7a8",
"bl c #abc7aa",
"bm c #acc8a9",
"bn c #adc8ad",
"bo c #aec8ad",
"bp c #afc8ad",
"ca c #b0caad",
"cb c #b2cbb0",
"cc c #b1cdae",
"cd c #b4ceb1",
"ce c #bdd3b8",
"cf c #bfd4bb",
"cg c #c1d6bd",
"ch c #c2d7be",
"ci c #ffffff",
"cj c #ffffff",
"ck c #ffffff",
"cl c #ffffff",
"cm c #ffffff",
"cn c #ffffff",
"co c #ffffff",
"cp c #ffffff",
"da c #ffffff",
"db c #ffffff",
"dc c #ffffff",
"dd c #ffffff",
"de c #ffffff",
"df c #ffffff",
"dg c #ffffff",
"dh c #ffffff",
"di c #ffffff",
"dj c #ffffff",
"dk c #ffffff",
"dl c #ffffff",
"dm c #ffffff",
"dn c #ffffff",
"do c #ffffff",
"dp c None",
"dpdpdpdpdpdpdpdpdpdpdpdpdpdpdpdpdpdpdpdpdpdp",
"dpdpdpdpdpdpdpdpdpdpdpdpdpdpdpdpdpdpdpdpdpdp",
"dpdpdpdpdpdpdpdpdpdpdpdpdpdpdpdpdpdpdpdpdpdp",
"dpdpdpdpdpdpdpdpdpdpaadpdpdpdpdpdpdpdpdpdpdp",
"dpdpdpdpdpdpdpdpdpdpaaaadpdpdpdpdpdpdpdpdpdp",
"dpdpdpdpdpdpdpdpdpdpaaapaadpdpdpdpdpdpdpdpdp",
"dpdpdpdpdpdpdpdpdpdpaaccanaadpdpdpdpdpdpdpdp",
"dpdpdpaaaaaaaaaaaaaaaacdbmamaadpdpdpdpdpdpdp",
"dpdpdpaacgcecfchchchchcacbbiamabdpdpdpdpdpdp",
"dpdpdpaabjbobkbkbkbfbebibnbgbcaoaadpdpdpdpdp",
"dpdpdpaabablbebdbebhbkbmbibkbpbbajaadpdpdpdp",
"dpdpdpaaalaiakakakakakakakakakakaiacaadpdpdp",
"dpdpdpaaahaeaeaeaeaeaeaeaeaeaeaeacaadpdpdpdp",
"dpdpdpaaagaeaeaeaeaeaeaeaeaeaeacaadpdpdpdpdp",
"dpdpdpaaafadadadadadadaeaeaeacaadpdpdpdpdpdp",
"dpdpdpaaaaaaaaaaaaaaaaadaeacaadpdpdpdpdpdpdp",
"dpdpdpdpdpdpdpdpdpdpaaadacaadpdpdpdpdpdpdpdp",
"dpdpdpdpdpdpdpdpdpdpaaacaadpdpdpdpdpdpdpdpdp",
"dpdpdpdpdpdpdpdpdpdpaaaadpdpdpdpdpdpdpdpdpdp",
"dpdpdpdpdpdpdpdpdpdpaadpdpdpdpdpdpdpdpdpdpdp",
"dpdpdpdpdpdpdpdpdpdpdpdpdpdpdpdpdpdpdpdpdpdp",
"dpdpdpdpdpdpdpdpdpdpdpdpdpdpdpdpdpdpdpdpdpdp"
};
