/* XPM */
static const char * stock_index_24[] = {
"22 22 256 2",
"aa c #000000",
"ab c #030000",
"ac c #040000",
"ad c #050000",
"ae c #070000",
"af c #060100",
"ag c #080000",
"ah c #080100",
"ai c #030500",
"aj c #0c0303",
"ak c #090600",
"al c #131210",
"am c #201a1a",
"an c #282523",
"ao c #332c2b",
"ap c #4f4d4a",
"ba c #574f4f",
"bb c #575050",
"bc c #57514f",
"bd c #585251",
"be c #5d5954",
"bf c #5a5a5a",
"bg c #625a53",
"bh c #5c5c5c",
"bi c #615c5b",
"bj c #625c59",
"bk c #625c5b",
"bl c #636363",
"bm c #6b625a",
"bn c #646464",
"bo c #696764",
"bp c #6d6767",
"ca c #706760",
"cb c #716860",
"cc c #6b6b6b",
"cd c #736961",
"ce c #746c67",
"cf c #766d68",
"cg c #747474",
"ch c #79736c",
"ci c #777777",
"cj c #7f766d",
"ck c #787878",
"cl c #7b7975",
"cm c #7c7c7c",
"cn c #7e7e7e",
"co c #84817a",
"cp c #8d8379",
"da c #868686",
"db c #878786",
"dc c #878787",
"dd c #8c8782",
"de c #8a8a8a",
"df c #948a7f",
"dg c #908c86",
"dh c #928c84",
"di c #8d8d8d",
"dj c #958c80",
"dk c #988d82",
"dl c #909090",
"dm c #919191",
"dn c #939393",
"do c #97938e",
"dp c #949494",
"ea c #98948f",
"eb c #959595",
"ec c #a09489",
"ed c #979797",
"ee c #989898",
"ef c #999999",
"eg c #9d9897",
"eh c #9a9a9a",
"ei c #9d9d9d",
"ej c #9e9e9e",
"ek c #a0a0a0",
"el c #a1a1a1",
"em c #a8a199",
"en c #a3a3a2",
"eo c #a3a3a3",
"ep c #a5a5a5",
"fa c #a6a6a6",
"fb c #a8a8a8",
"fc c #a9a9a8",
"fd c #b8ab9d",
"fe c #afafaf",
"ff c #baad9e",
"fg c #b0b0b0",
"fh c #beb0a2",
"fi c #b5b5b5",
"fj c #bfb4a6",
"fk c #c2b5a7",
"fl c #b9b9b9",
"fm c #bababa",
"fn c #bcbcbc",
"fo c #c9bbac",
"fp c #c0bdba",
"ga c #c8bfb4",
"gb c #c1c1c1",
"gc c #c2c2c2",
"gd c #c3c3c3",
"ge c #c4c4c4",
"gf c #c5c5c5",
"gg c #c6c6c6",
"gh c #c7c7c7",
"gi c #c8c8c8",
"gj c #cacaca",
"gk c #d7c8b8",
"gl c #d8c9b9",
"gm c #cccccc",
"gn c #d9cabb",
"go c #cdcdcd",
"gp c #d5ccbf",
"ha c #cecece",
"hb c #cfcfcf",
"hc c #d9cec2",
"hd c #d0d0d0",
"he c #d1d1d1",
"hf c #decfbf",
"hg c #d2d2d1",
"hh c #ddcfc4",
"hi c #d2d2d2",
"hj c #d8d1d0",
"hk c #d3d3d3",
"hl c #dad3c9",
"hm c #d5d5d5",
"hn c #d9d5d2",
"ho c #d6d6d5",
"hp c #e3d3c2",
"ia c #d7d7d7",
"ib c #dfd7cd",
"ic c #ded7d5",
"id c #d9d9d9",
"ie c #dbdbdb",
"if c #e0dbd7",
"ig c #dddddd",
"ih c #dfdfdf",
"ii c #e2dfdc",
"ij c #e2e2e2",
"ik c #f0e0ce",
"il c #e4e4e4",
"im c #e8e5e2",
"in c #ece4e2",
"io c #e9e6e3",
"ip c #e8e8e8",
"ja c #eaeaea",
"jb c #f6e9d8",
"jc c #ececec",
"jd c #ededed",
"je c #f1ede7",
"jf c #eeeeee",
"jg c #efefef",
"jh c #f9eee4",
"ji c #f9efe3",
"jj c #f1f1f1",
"jk c #f9f0e4",
"jl c #f3f2f2",
"jm c #f9f1ea",
"jn c #fbf3ea",
"jo c #f5f5f5",
"jp c #f6f6f6",
"ka c #f8f8f8",
"kb c #fafafa",
"kc c #fdfaf8",
"kd c #fcfbfa",
"ke c #fdfdfc",
"kf c #fdfdfd",
"kg c #fefdfc",
"kh c #fefdfd",
"ki c #fffefd",
"kj c #ffffff",
"kk c #ffffff",
"kl c #ffffff",
"km c #ffffff",
"kn c #ffffff",
"ko c #ffffff",
"kp c #ffffff",
"la c #ffffff",
"lb c #ffffff",
"lc c #ffffff",
"ld c #ffffff",
"le c #ffffff",
"lf c #ffffff",
"lg c #ffffff",
"lh c #ffffff",
"li c #ffffff",
"lj c #ffffff",
"lk c #ffffff",
"ll c #ffffff",
"lm c #ffffff",
"ln c #ffffff",
"lo c #ffffff",
"lp c #ffffff",
"ma c #ffffff",
"mb c #ffffff",
"mc c #ffffff",
"md c #ffffff",
"me c #ffffff",
"mf c #ffffff",
"mg c #ffffff",
"mh c #ffffff",
"mi c #ffffff",
"mj c #ffffff",
"mk c #ffffff",
"ml c #ffffff",
"mm c #ffffff",
"mn c #ffffff",
"mo c #ffffff",
"mp c #ffffff",
"na c #ffffff",
"nb c #ffffff",
"nc c #ffffff",
"nd c #ffffff",
"ne c #ffffff",
"nf c #ffffff",
"ng c #ffffff",
"nh c #ffffff",
"ni c #ffffff",
"nj c #ffffff",
"nk c #ffffff",
"nl c #ffffff",
"nm c #ffffff",
"nn c #ffffff",
"no c #ffffff",
"np c #ffffff",
"oa c #ffffff",
"ob c #ffffff",
"oc c #ffffff",
"od c #ffffff",
"oe c #ffffff",
"of c #ffffff",
"og c #ffffff",
"oh c #ffffff",
"oi c #ffffff",
"oj c #ffffff",
"ok c #ffffff",
"ol c #ffffff",
"om c #ffffff",
"on c #ffffff",
"oo c #ffffff",
"op c #ffffff",
"pa c #ffffff",
"pb c #ffffff",
"pc c #ffffff",
"pd c #ffffff",
"pe c #ffffff",
"pf c #ffffff",
"pg c #ffffff",
"ph c #ffffff",
"pi c #ffffff",
"pj c #ffffff",
"pk c #ffffff",
"pl c #ffffff",
"pm c #ffffff",
"pn c #ffffff",
"po c #ffffff",
"pp c None",
"ppaaaaaaaaaaaaaaaaaaaaaaaaaaaaaaaaaaaaaaaapp",
"ppaakfjojojojojojojojpjpjpjpjpjpjpjpjphdaapp",
"ppaajogbgbgbgdgdgdgdgggggggggggigigigidiaapp",
"ppaajpgdgdgdgggggggggigigigigigjgjgjgjdmaapp",
"ppaajgdcdcdcdededededidididididmdmdmdmbhaapp",
"ppaakajajajajajajajajajajajajajajajajagjaapp",
"ppaajpgjgjgjgmgmgmgmgmhahahahahdhdhdhdedaapp",
"ppaajpgmgmgmgohahahaelakeogfgehehghehiehaapp",
"ppaaipdpdpdpedededdnbakeaacicndieieieiccaapp",
"ppaakajjjcjcjcjcjchbbbkcaaepflhdjfjfjdggaapp",
"ppaakahihihihihmhmfmbpjmaadmejfiididideoaapp",
"ppaakahmhmhmhmiaiafnbkjhapaabnaacgejhoeoaapp",
"ppaaihekekekekeociaabijkcekgaakialaablcmaapp",
"ppaakajojgjgjgjfaajleajieckhcfkgcdenaafaaapp",
"ppaakaieieieieghaaimdojbcojndgjecldbaeeoaapp",
"ppaakbigigigiggdaaiiemikgagpibhlhhdhaeejaapp",
"ppaajafbfbfbfbebachngngkhfglhpfohccjaedlaapp",
"ppaakbjojjjjjjhkaffpddfkfjfdfffhdfcbaegmaapp",
"ppaakbijijijijhmfcaobechdjcpdfdkcaaackfiaapp",
"ppaakbijijijijilgcckambcbjbgbmbdboageefiaapp",
"ppaaijfgfgfgfgfgfeefegadajagahabanbfdafmaapp",
"ppaaaaaaaaaaaaaaaaaaacinichjifiokdaiaaaaaapp"
};
