/* XPM */
static const char * stock_home_24[] = {
"22 22 128 2",
"aa c #000000",
"ab c #141414",
"ac c #171717",
"ad c #181818",
"ae c #191919",
"af c #1c1c1c",
"ag c #1d1d1d",
"ah c #3d1208",
"ai c #1f1f1f",
"aj c #202020",
"ak c #212121",
"al c #222222",
"am c #232323",
"an c #242424",
"ao c #371d16",
"ap c #262626",
"ba c #2a2a2a",
"bb c #2c2c2c",
"bc c #313131",
"bd c #333333",
"be c #343434",
"bf c #303d2a",
"bg c #383838",
"bh c #464646",
"bi c #474747",
"bj c #3f4f37",
"bk c #40503a",
"bl c #44563e",
"bm c #4f4f4f",
"bn c #505050",
"bo c #555555",
"bp c #4c6042",
"ca c #585858",
"cb c #5d5d5d",
"cc c #924b37",
"cd c #944d3a",
"ce c #924e3d",
"cf c #616161",
"cg c #934f3e",
"ch c #626262",
"ci c #974f3c",
"cj c #666666",
"ck c #9b5343",
"cl c #676767",
"cm c #a05443",
"cn c #5d7555",
"co c #6c6c6c",
"cp c #6d6d6d",
"da c #657460",
"db c #6e6e6e",
"dc c #64785e",
"dd c #717171",
"de c #d15137",
"df c #d0533a",
"dg c #cf543c",
"dh c #787878",
"di c #6e8467",
"dj c #c95c49",
"dk c #7c7c7c",
"dl c #7d7d7d",
"dm c #7e7e7e",
"dn c #c1665a",
"do c #838383",
"dp c #858585",
"ea c #868686",
"eb c #7f8f7a",
"ec c #888888",
"ed c #82947c",
"ee c #8d8d8d",
"ef c #909090",
"eg c #879981",
"eh c #919191",
"ei c #8a9b85",
"ej c #949494",
"ek c #e17c66",
"el c #dd806d",
"em c #9a9a9a",
"en c #a0a0a0",
"eo c #a1a1a1",
"ep c #a6a6a6",
"fa c #a9a9a9",
"fb c #acacac",
"fc c #aeaeae",
"fd c #b2b2b2",
"fe c #e99e8f",
"ff c #eca291",
"fg c #eca292",
"fh c #eca696",
"fi c #bababa",
"fj c #bcbcbc",
"fk c #bfbfbf",
"fl c #c4c4c4",
"fm c #c7c7c7",
"fn c #cacaca",
"fo c #cecece",
"fp c #d1d1d1",
"ga c #d2d2d2",
"gb c #ebebeb",
"gc c #eeeeee",
"gd c #ffffff",
"ge c #ffffff",
"gf c #ffffff",
"gg c #ffffff",
"gh c #ffffff",
"gi c #ffffff",
"gj c #ffffff",
"gk c #ffffff",
"gl c #ffffff",
"gm c #ffffff",
"gn c #ffffff",
"go c #ffffff",
"gp c #ffffff",
"ha c #ffffff",
"hb c #ffffff",
"hc c #ffffff",
"hd c #ffffff",
"he c #ffffff",
"hf c #ffffff",
"hg c #ffffff",
"hh c #ffffff",
"hi c #ffffff",
"hj c #ffffff",
"hk c #ffffff",
"hl c #ffffff",
"hm c #ffffff",
"hn c #ffffff",
"ho c #ffffff",
"hp c None",
"hphphphphphphphphphpaaaahphphphphphphphphphp",
"hphphphpaaaaaaaahpaaakbbaahphphphphphphphphp",
"hphphphpaadnccaaaababdbeanaahphphphphphphphp",
"hphphphpaacdcmaaadbiboeebgaeaahphphphphphphp",
"hphphphpaaciaaalbceoclfbfjcaabaahphphphphphp",
"hphphphpaaaaafbhcjfidmgafjgdbmapaahphphphphp",
"hphphphpaaambnfdefgaemgdfjgdfjdoacaahphphphp",
"hphphpaaajddepgaemgdfjgdfjgdfjgdcfagaahphphp",
"hphpaaaiflflfngdfcgdfigdfigdfjgdfpdkafaahphp",
"hpaaamfcfkfkfkfkfkfkfkfkaaaaaaaaaaefcoanaahp",
"aaaaaaaagcgdgdgdgdgdgdgdaaejfmgbaadlaaaaaaaa",
"hphphpaagagdaaaaaaaaaagdaafjgdgdaadbaahphphp",
"hphphpaafagdaafeelckaagdaafogdgdaachaahphphp",
"hphphpaadpgdaafgdfcgaagdaaaaaaaaaacpaahphphp",
"hphphpaaaagdaaffdgaoaaflejcbcbeadhaaaahphphp",
"hphphpaaaagcaafhdjcgaagdgdgdgdgdfiaahphphphp",
"hphphphpaafiaaekdnceaafjfjfjfjfjecaahphphphp",
"hphphphpaaenahdednckaagdgdgdgdgdehaahphphphp",
"aaaaaaaaaaaaaaaaaaaaaaaaaaaaaaaaaaaaaaaahpaa",
"hphphpafegedeiegdicnbpbjbfaaedebdcbldabkaahp",
"hpaaaahpaaaaaaaaaaaaaaaaaahpaaaaaaaaaaaahphp",
"hphphphphphphpaaaaaahphphphphphphphphphphphp"
};
