/* XPM */
static const char * stock_new_24[] = {
"22 22 128 2",
"aa c #000000",
"ab c #585858",
"ac c #65625a",
"ad c #676359",
"ae c #706f6f",
"af c #88847b",
"ag c #8d887e",
"ah c #8f8a81",
"ai c #8f8f8f",
"aj c #979288",
"ak c #9b958a",
"al c #9b968a",
"am c #9d978b",
"an c #999891",
"ao c #9d978c",
"ap c #9e988d",
"ba c #9f998d",
"bb c #9b9b9b",
"bc c #a19b8f",
"bd c #a19b90",
"be c #a19c90",
"bf c #a29c90",
"bg c #a39d91",
"bh c #a39d92",
"bi c #9e9e9e",
"bj c #a39e92",
"bk c #9f9e9d",
"bl c #a49e93",
"bm c #a2a2a2",
"bn c #a4a4a3",
"bo c #afaeac",
"bp c #afafae",
"ca c #b7b7b5",
"cb c #c0c0c0",
"cc c #c4c3c2",
"cd c #c7c7c7",
"ce c #cdccca",
"cf c #cfcfcf",
"cg c #d2d1ce",
"ch c #d1d1d1",
"ci c #d3d2d0",
"cj c #d3d3d3",
"ck c #d5d3ce",
"cl c #d5d4d3",
"cm c #d7d5d1",
"cn c #d7d6d1",
"co c #d6d6d6",
"cp c #d8d6d1",
"da c #d8d6d2",
"db c #d9d7d3",
"dc c #d8d8d6",
"dd c #dad9d7",
"de c #dbd9d5",
"df c #dadada",
"dg c #dcdad6",
"dh c #dcdbd7",
"di c #dddbd7",
"dj c #dddcd8",
"dk c #dedcd8",
"dl c #deddd9",
"dm c #dedddc",
"dn c #dfdeda",
"do c #e0deda",
"dp c #e0dfdb",
"ea c #dfdfdf",
"eb c #e1dfdb",
"ec c #e1dfdc",
"ed c #e1e0dc",
"ee c #e1e0dd",
"ef c #e2e0dd",
"eg c #e2e1dd",
"eh c #e2e1de",
"ei c #e1e1e1",
"ej c #e3e2de",
"ek c #e3e2df",
"el c #e4e2df",
"em c #e4e3df",
"en c #e4e3e0",
"eo c #e4e4e2",
"ep c #e5e4e0",
"fa c #e5e4e1",
"fb c #e5e4e2",
"fc c #e6e4e1",
"fd c #e6e5e2",
"fe c #e7e5e2",
"ff c #e7e6e3",
"fg c #e8e7e4",
"fh c #e8e7e5",
"fi c #e9e8e5",
"fj c #e9e8e6",
"fk c #e9e9e9",
"fl c #eae9e7",
"fm c #ebeae8",
"fn c #ecebe9",
"fo c #edecea",
"fp c #ededeb",
"ga c #ededed",
"gb c #eeedeb",
"gc c #efeeec",
"gd c #efefed",
"ge c #f0efed",
"gf c #f0f0ee",
"gg c #f0f0f0",
"gh c #f1f0ee",
"gi c #f1f1ef",
"gj c #f2f2f0",
"gk c #f3f2f1",
"gl c #f3f3f1",
"gm c #f4f3f2",
"gn c #f4f4f4",
"go c #f5f4f3",
"gp c #f5f5f3",
"ha c #f6f5f4",
"hb c #f6f6f4",
"hc c #f6f6f6",
"hd c #f7f6f5",
"he c #f8f7f6",
"hf c #f8f8f7",
"hg c #f9f9f8",
"hh c #f9f9f9",
"hi c #fafaf9",
"hj c #fbfbfb",
"hk c #fcfcfb",
"hl c #fdfdfd",
"hm c #fefefe",
"hn c #ffffff",
"ho c #ffffff",
"hp c None",
"hphpaaaaaaaaaaaaaaaaaaaaaaaaaahphphphphphphp",
"hpaacjhchnhnhnhnhnhnhnhnhhdfabaahphphphphphp",
"hpaahchnhnhnhnhnhnhnhnhnhncdchcoaahphphphphp",
"hpaahnhnhnhnhnhnhnhmhnhmhlcbeiggbbaahphphphp",
"hpaahnhnhnhnhnhmhlhkhlhkhjbpfkhneaaiaahphphp",
"hpaahnhnhnhmhlhkhjhihjhihgbngghngncfbmaahphp",
"hpaahnhmhlhkhjhihghfhghfhebiaaaaaaaaaaaaaahp",
"hpaahnhkhjhihghfhehdhehdhbgmdmcicabkaeacaahp",
"hpaahnhihghfhehdhbgohbgogmgjeodddcceboafaahp",
"hpaahnhfhehdhbgogmglgmglgjgdgbfofjclccahaahp",
"hpaahnhagpgmgmglgjgigjgighgbfnflfbencgagaahp",
"hpaahngmgkgjgfgdghgeghgegcfnfhfaenehecajaahp",
"hpaahngmgkgjgfgdghgeghgegcfnfhfaenehecblaahp",
"hpaahngfgdgdgcgbfofofofofnfgffekefeddpbeaahp",
"hpaahnfpfofnfnfnfmfifmfififafcejdndldjbdaahp",
"hpaahnfmfjfjfhfgfgfffgfffeemejdpdldjdhbdaahp",
"hpaahnfffdfdfdfafcepfcepemegdpdldhdedbbaaahp",
"hpaahhenekejelemegejegejededdldidgdbdaapaahp",
"hpaagaeeeceddpegdpeddpeddndodidgdbcpcmamaahp",
"hpaachebdodndldpdldodldodkdkdgdgdacnckakaahp",
"hpaaanbjblbhbgbhbebfbebfbcbdbabaaoaoaladaahp",
"hphpaaaaaaaaaaaaaaaaaaaaaaaaaaaaaaaaaaaahphp"
};
