/* XPM */
static const char * stock_trash_24[] = {
"22 22 256 2",
"aa c #000000",
"ab c #1e1e1a",
"ac c #23221d",
"ad c #292722",
"ae c #2b2b2b",
"af c #323229",
"ag c #35332c",
"ah c #34342b",
"ai c #35352c",
"aj c #37372d",
"ak c #3c3c32",
"al c #3d3d32",
"am c #3c3c3c",
"an c #3e3e33",
"ao c #3f3f34",
"ap c #3e3e3e",
"ba c #404035",
"bb c #414135",
"bc c #414136",
"bd c #424237",
"be c #434337",
"bf c #44433a",
"bg c #444438",
"bh c #45443a",
"bi c #45443b",
"bj c #47453b",
"bk c #474747",
"bl c #49493c",
"bm c #4a4a3d",
"bn c #4c4b41",
"bo c #4d4d3f",
"bp c #4e4d40",
"ca c #4e4e40",
"cb c #4e4e41",
"cc c #515042",
"cd c #515045",
"ce c #515143",
"cf c #505050",
"cg c #535246",
"ch c #545345",
"ci c #545445",
"cj c #555546",
"ck c #565647",
"cl c #575647",
"cm c #575748",
"cn c #585849",
"co c #59584c",
"cp c #5a5a4a",
"da c #5b5b4b",
"db c #5c5b4e",
"dc c #5d5c4c",
"dd c #5b5b5b",
"de c #5e5d50",
"df c #605e51",
"dg c #5f5f4f",
"dh c #60604f",
"di c #616150",
"dj c #626251",
"dk c #656456",
"dl c #666654",
"dm c #686856",
"dn c #676767",
"do c #696957",
"dp c #6a6a58",
"ea c #6b6a58",
"eb c #6d6c5c",
"ec c #6d6c5d",
"ed c #6d6d5a",
"ee c #6e6d5d",
"ef c #6f6e5e",
"eg c #717060",
"eh c #71715d",
"ei c #71715e",
"ej c #737261",
"ek c #747460",
"el c #757464",
"em c #767564",
"en c #777665",
"eo c #787766",
"ep c #767676",
"fa c #7a7968",
"fb c #7a7a65",
"fc c #7a796c",
"fd c #7b7b65",
"fe c #7c7a69",
"ff c #7c7a6a",
"fg c #7c7b68",
"fh c #7d7d68",
"fi c #7e7c6b",
"fj c #807e6c",
"fk c #7f7e70",
"fl c #807f6d",
"fm c #838373",
"fn c #84846f",
"fo c #85856e",
"fp c #858574",
"ga c #878673",
"gb c #8b8976",
"gc c #898989",
"gd c #8c8b77",
"ge c #8e8c78",
"gf c #8c8c7f",
"gg c #8f8d79",
"gh c #908f7a",
"gi c #908e80",
"gj c #92907c",
"gk c #93927d",
"gl c #94927d",
"gm c #95937e",
"gn c #969586",
"go c #989681",
"gp c #979685",
"ha c #97978a",
"hb c #999882",
"hc c #9a9883",
"hd c #9f9d87",
"he c #a19f88",
"hf c #a3a18a",
"hg c #a5a38f",
"hh c #a7a68e",
"hi c #a8a68f",
"hj c #aaa890",
"hk c #aaa895",
"hl c #acaa92",
"hm c #abab99",
"hn c #acaaa0",
"ho c #adac93",
"hp c #aeab9b",
"ia c #adad96",
"ib c #afad94",
"ic c #adad9f",
"id c #b0af96",
"ie c #b1af96",
"if c #afaf9d",
"ig c #b3b198",
"ih c #afafaf",
"ii c #b3b19e",
"ij c #b5b39a",
"ik c #b6b49e",
"il c #b6b59b",
"im c #b5b4a5",
"in c #b7b5a0",
"io c #b8b69c",
"ip c #b6b4ad",
"ja c #b7b7a1",
"jb c #b9b79d",
"jc c #b8b7a1",
"jd c #b9b89d",
"je c #bab7a2",
"jf c #bab7a3",
"jg c #bbb8a8",
"jh c #bbb9ae",
"ji c #bdbba1",
"jj c #bdbbaa",
"jk c #bababa",
"jl c #bebca6",
"jm c #bdbcb3",
"jn c #c0bea3",
"jo c #c0bfae",
"jp c #c1c0b3",
"ka c #c2c1ac",
"kb c #c2c1b1",
"kc c #c3c2ae",
"kd c #c4c3b4",
"ke c #c7c5ac",
"kf c #c6c4b5",
"kg c #c9c7ae",
"kh c #c8c7b2",
"ki c #c7c6bb",
"kj c #c9c7b8",
"kk c #c9c9b5",
"kl c #cac9c0",
"km c #cbcbb5",
"kn c #cecdbd",
"ko c #cfcec1",
"kp c #d0cfbe",
"la c #d1cfbf",
"lb c #d2d0c0",
"lc c #d3d1c1",
"ld c #d4d2ba",
"le c #d5d4c5",
"lf c #d8d6ca",
"lg c #d8d7c6",
"lh c #dad7c1",
"li c #d9d7c5",
"lj c #d8d7d0",
"lk c #d9d8ca",
"ll c #d8d8d8",
"lm c #dedbc6",
"ln c #e0dec9",
"lo c #e2dfcb",
"lp c #e2e0cb",
"ma c #e1e0d1",
"mb c #e2e0d0",
"mc c #e3e1d2",
"md c #e3e1d3",
"me c #e3e2d3",
"mf c #e5e4dc",
"mg c #e5e5de",
"mh c #e9e8dc",
"mi c #e8e8e8",
"mj c #ecead9",
"mk c #edece4",
"ml c #f1f0df",
"mm c #f2f0e4",
"mn c #f2f0e6",
"mo c #f4f3ec",
"mp c #f7f6ed",
"na c #f8f7ed",
"nb c #f8f8f8",
"nc c #fbfaf0",
"nd c #fbfaf3",
"ne c #fcfbf1",
"nf c #fbfbf4",
"ng c #fdfcf5",
"nh c #fefdf6",
"ni c #fefdf7",
"nj c #ffffff",
"nk c #ffffff",
"nl c #ffffff",
"nm c #ffffff",
"nn c #ffffff",
"no c #ffffff",
"np c #ffffff",
"oa c #ffffff",
"ob c #ffffff",
"oc c #ffffff",
"od c #ffffff",
"oe c #ffffff",
"of c #ffffff",
"og c #ffffff",
"oh c #ffffff",
"oi c #ffffff",
"oj c #ffffff",
"ok c #ffffff",
"ol c #ffffff",
"om c #ffffff",
"on c #ffffff",
"oo c #ffffff",
"op c #ffffff",
"pa c #ffffff",
"pb c #ffffff",
"pc c #ffffff",
"pd c #ffffff",
"pe c #ffffff",
"pf c #ffffff",
"pg c #ffffff",
"ph c #ffffff",
"pi c #ffffff",
"pj c #ffffff",
"pk c #ffffff",
"pl c #ffffff",
"pm c #ffffff",
"pn c #ffffff",
"po c #ffffff",
"pp c None",
"ppppppppppppppppaaaaaaaaaaaapppppppppppppppp",
"ppppppppppppaaamgcnbmilljkdnaaaapppppppppppp",
"ppppppppaaaacojemfmomknamnjpdedkaaaaaapppppp",
"ppppaahijijnhfebffbnbibfefkjilecighhghaapppp",
"ppaahjldlhlnhpglbhacagadabcghogjkciehlgkaapp",
"ppddlildlpmjlchngifidbbjdkenfjjlijilijheaapp",
"ppaambnememcmllelkkninioidhejdjbiokeibgbaapp",
"ppaahjipndngncmhmamelnlmkejnkglolbjgfeegaapp",
"ppaahbibjmljmgnfnininhndmpmmmdjogmeoeeebaapp",
"ppaaemgkhfikkdkolfklkijjjfhdgegdgefadkdfaapp",
"ppppaagcgojhkbkplalgkfieieiehcflejcdcfaapppp",
"ppppaaciapaeihhghjiihkhfgaggecepaaaaalaapppp",
"ppppaaehclcpaobkbkaaddaaaaaaaaafboajaoaapppp",
"ppppaafbdafpdjfmelccfkdpbadjciancjahceaapppp",
"ppppaafodcgpeahafcbpgffgbddhcpakcbaiciaapppp",
"ppppaafodakaeaimicchhagnbddhdmbcdpbedpaapppp",
"ppppaafodaiaeakhkheakhiacifneibedpbedpaapppp",
"ppppaafddajaeakhkheakhiacifneibedpbedgaapppp",
"ppppaadldajaeakhkheakhiacifneibedpblcmaapppp",
"ppppppaaclfhdmhmifedkmiacifndobbckbgaapppppp",
"ppppppppaaaaaabmcncaekdicbblblaaaaaapppppppp",
"ppppppppppppppaaaaaaaaaaaaaaaaaapppppppppppp"
};
