/* XPM */
static const char * stock_up_arrow_24[] = {
"22 22 128 2",
"aa c #000000",
"ab c #2f2f2f",
"ac c #3d4e39",
"ad c #3e4f39",
"ae c #3f5239",
"af c #41533c",
"ag c #43543d",
"ah c #4c6046",
"ai c #4d6146",
"aj c #4d6246",
"ak c #4d6247",
"al c #5a7257",
"am c #5d7555",
"an c #5e7656",
"ao c #5e7756",
"ap c #607857",
"ba c #607858",
"bb c #607958",
"bc c #617959",
"bd c #617a59",
"be c #627b59",
"bf c #637c5b",
"bg c #637d5b",
"bh c #647d5b",
"bi c #657e5c",
"bj c #657f5c",
"bk c #66815e",
"bl c #67815e",
"bm c #68835f",
"bn c #6a8561",
"bo c #748a72",
"bp c #71916e",
"ca c #8db389",
"cb c #93b690",
"cc c #96b892",
"cd c #99bc97",
"ce c #a5b4a4",
"cf c #9cbf99",
"cg c #9dc19b",
"ch c #a0c39d",
"ci c #9fc49d",
"cj c #a1c69e",
"ck c #a1c69f",
"cl c #a2c7a0",
"cm c #aecbad",
"cn c #afccae",
"co c #b1ceb0",
"cp c #b4d2b3",
"da c #b5d2b4",
"db c #b5d3b4",
"dc c #b6d4b5",
"dd c #b7d5b6",
"de c #b8d6b7",
"df c #b8d7b7",
"dg c #b9d7b8",
"dh c #bfd4bf",
"di c #c0d5c0",
"dj c #c0d9bf",
"dk c #c5dfc4",
"dl c #c6e0c5",
"dm c #c7e1c6",
"dn c #d0e7d0",
"do c #d6ead6",
"dp c #e8f4e6",
"ea c #f0feef",
"eb c #f1fff0",
"ec c #ffffff",
"ed c #ffffff",
"ee c #ffffff",
"ef c #ffffff",
"eg c #ffffff",
"eh c #ffffff",
"ei c #ffffff",
"ej c #ffffff",
"ek c #ffffff",
"el c #ffffff",
"em c #ffffff",
"en c #ffffff",
"eo c #ffffff",
"ep c #ffffff",
"fa c #ffffff",
"fb c #ffffff",
"fc c #ffffff",
"fd c #ffffff",
"fe c #ffffff",
"ff c #ffffff",
"fg c #ffffff",
"fh c #ffffff",
"fi c #ffffff",
"fj c #ffffff",
"fk c #ffffff",
"fl c #ffffff",
"fm c #ffffff",
"fn c #ffffff",
"fo c #ffffff",
"fp c #ffffff",
"ga c #ffffff",
"gb c #ffffff",
"gc c #ffffff",
"gd c #ffffff",
"ge c #ffffff",
"gf c #ffffff",
"gg c #ffffff",
"gh c #ffffff",
"gi c #ffffff",
"gj c #ffffff",
"gk c #ffffff",
"gl c #ffffff",
"gm c #ffffff",
"gn c #ffffff",
"go c #ffffff",
"gp c #ffffff",
"ha c #ffffff",
"hb c #ffffff",
"hc c #ffffff",
"hd c #ffffff",
"he c #ffffff",
"hf c #ffffff",
"hg c #ffffff",
"hh c #ffffff",
"hi c #ffffff",
"hj c #ffffff",
"hk c #ffffff",
"hl c #ffffff",
"hm c #ffffff",
"hn c #ffffff",
"ho c #ffffff",
"hp c None",
"hphphphphphphphphphphphphphphphphphphphphphp",
"hphphphphphphphphphphphphphphphphphphphphphp",
"hphphphphphphphphphpaahphphphphphphphphphphp",
"hphphphphphphphphpabceaahphphphphphphphphphp",
"hphphphphphphphpaadpccafaahphphphphphphphphp",
"hphphphphphphpaaebdecibkafaahphphphphphphphp",
"hphphphphphpaaebdcdgckbmbgaeaahphphphphphphp",
"hphphphphpaaebdfdcdgclbnbjbcadaahphphphphphp",
"hphphphpaaeadfdgdddgckbnbibcamadaahphphphphp",
"hphphpaadodhdidgdfdfckbmbfajahahahaahphphphp",
"hphpaaaaaaaaaadmdcdccjblbeacaaaaaaaaaahphphp",
"hphphphphphpaadndcdbchbjbbacaahphphphphphphp",
"hphphphphphpaadmdcdacgbhbaacaahphphphphphphp",
"hphphphphphpaadldbcpcfbfbaacaahphphphphphphp",
"hphphphphphpaadkcpcocdbdaoacaahphphphphphphp",
"hphphphphphpaadjcncmcbapanacaahphphphphphphp",
"hphphphphphpaacabobpalakaiagaahphphphphphphp",
"hphphphphphpaaaaaaaaaaaaaaaaaahphphphphphphp",
"hphphphphphphphphphphphphphphphphphphphphphp",
"hphphphphphphphphphphphphphphphphphphphphphp",
"hphphphphphphphphphphphphphphphphphphphphphp",
"hphphphphphphphphphphphphphphphphphphphphphp"
};
