/* XPM */
static const char * stock_open_24[] = {
"22 22 256 2",
"aa c #000000",
"ab c #010100",
"ac c #010101",
"ad c #020201",
"ae c #050504",
"af c #070705",
"ag c #080907",
"ah c #080908",
"ai c #0b0b0b",
"aj c #0c0c09",
"ak c #0d0d0d",
"al c #151612",
"am c #161616",
"an c #1a1b15",
"ao c #20201a",
"ap c #23241d",
"ba c #2d2d25",
"bb c #33342b",
"bc c #3d3f34",
"bd c #3e3f32",
"be c #434538",
"bf c #494b3d",
"bg c #4f5243",
"bh c #535445",
"bi c #555847",
"bj c #6a6d59",
"bk c #6f735e",
"bl c #71735f",
"bm c #71745f",
"bn c #717460",
"bo c #727560",
"bp c #747470",
"ca c #797c66",
"cb c #797d67",
"cc c #7d8069",
"cd c #7d8169",
"ce c #80836c",
"cf c #80836d",
"cg c #81836c",
"ch c #81856c",
"ci c #82866e",
"cj c #84866e",
"ck c #858970",
"cl c #868971",
"cm c #878a76",
"cn c #888c73",
"co c #898d74",
"cp c #8a8d74",
"da c #8a8d75",
"db c #8a8e74",
"dc c #8b8f75",
"dd c #8c8f76",
"de c #8f9379",
"df c #92957b",
"dg c #94987c",
"dh c #95987c",
"di c #95987e",
"dj c #96997e",
"dk c #969b7e",
"dl c #999d80",
"dm c #999d81",
"dn c #9a9d81",
"do c #9a9d82",
"dp c #9b9e83",
"ea c #9b9f83",
"eb c #9da184",
"ec c #9da185",
"ed c #9d9f90",
"ee c #9e9f91",
"ef c #9da286",
"eg c #9fa286",
"eh c #9fa386",
"ei c #9fa387",
"ej c #a1a588",
"ek c #a2a587",
"el c #a2a588",
"em c #a3a789",
"en c #a3a78a",
"eo c #a3a889",
"ep c #a4a88a",
"fa c #a4a98a",
"fb c #a5a98c",
"fc c #a5aa8b",
"fd c #a6aa8b",
"fe c #a6aa8c",
"ff c #a6a998",
"fg c #a7ab8d",
"fh c #a8ac8e",
"fi c #a9ad8e",
"fj c #a9ad8f",
"fk c #aaad96",
"fl c #aaaf8f",
"fm c #abb091",
"fn c #acb091",
"fo c #adb192",
"fp c #afb394",
"ga c #afb494",
"gb c #b0b494",
"gc c #b0b595",
"gd c #b2b696",
"ge c #b3b797",
"gf c #b3b5a5",
"gg c #b3b896",
"gh c #b5b999",
"gi c #b5b8a5",
"gj c #b6b8a7",
"gk c #b6bb99",
"gl c #b6bb9a",
"gm c #b8bc9b",
"gn c #b9bd9c",
"go c #b8bbaa",
"gp c #b9be9d",
"ha c #babcab",
"hb c #babf9d",
"hc c #babda8",
"hd c #bbc09e",
"he c #bcc09f",
"hf c #bcc19f",
"hg c #bdc2a0",
"hh c #bec2a0",
"hi c #bfc4a1",
"hj c #c0c5a2",
"hk c #c0c3af",
"hl c #c1c5a3",
"hm c #c1c3b2",
"hn c #c2c6a4",
"ho c #c2c7a4",
"hp c #c3c8a5",
"ia c #c4c9a5",
"ib c #c4c9a6",
"ic c #c6caa6",
"id c #c6cba7",
"ie c #c6cba8",
"if c #c7cca8",
"ig c #c7cab7",
"ih c #c8cda9",
"ii c #c9cea9",
"ij c #c9ceaa",
"ik c #cacfaa",
"il c #cacfab",
"im c #cacdbb",
"in c #ccd1ac",
"io c #cdd2ad",
"ip c #ced3ae",
"ja c #cfd4af",
"jb c #d4d6c2",
"jc c #d5d8c4",
"jd c #d7dac6",
"je c #d7dac9",
"jf c #d8dbc9",
"jg c #dadccc",
"jh c #daddc8",
"ji c #dadcd1",
"jj c #dcdcd4",
"jk c #dddfcb",
"jl c #dee1d0",
"jm c #e0e0d9",
"jn c #e2e5cf",
"jo c #e3e5d9",
"jp c #e3e6d4",
"ka c #e4e7d2",
"kb c #e5e6da",
"kc c #e7ead8",
"kd c #e8ebd9",
"ke c #eaecdd",
"kf c #ebeddd",
"kg c #ecece2",
"kh c #f2f2ea",
"ki c #f4f4ec",
"kj c #ffffff",
"kk c #ffffff",
"kl c #ffffff",
"km c #ffffff",
"kn c #ffffff",
"ko c #ffffff",
"kp c #ffffff",
"la c #ffffff",
"lb c #ffffff",
"lc c #ffffff",
"ld c #ffffff",
"le c #ffffff",
"lf c #ffffff",
"lg c #ffffff",
"lh c #ffffff",
"li c #ffffff",
"lj c #ffffff",
"lk c #ffffff",
"ll c #ffffff",
"lm c #ffffff",
"ln c #ffffff",
"lo c #ffffff",
"lp c #ffffff",
"ma c #ffffff",
"mb c #ffffff",
"mc c #ffffff",
"md c #ffffff",
"me c #ffffff",
"mf c #ffffff",
"mg c #ffffff",
"mh c #ffffff",
"mi c #ffffff",
"mj c #ffffff",
"mk c #ffffff",
"ml c #ffffff",
"mm c #ffffff",
"mn c #ffffff",
"mo c #ffffff",
"mp c #ffffff",
"na c #ffffff",
"nb c #ffffff",
"nc c #ffffff",
"nd c #ffffff",
"ne c #ffffff",
"nf c #ffffff",
"ng c #ffffff",
"nh c #ffffff",
"ni c #ffffff",
"nj c #ffffff",
"nk c #ffffff",
"nl c #ffffff",
"nm c #ffffff",
"nn c #ffffff",
"no c #ffffff",
"np c #ffffff",
"oa c #ffffff",
"ob c #ffffff",
"oc c #ffffff",
"od c #ffffff",
"oe c #ffffff",
"of c #ffffff",
"og c #ffffff",
"oh c #ffffff",
"oi c #ffffff",
"oj c #ffffff",
"ok c #ffffff",
"ol c #ffffff",
"om c #ffffff",
"on c #ffffff",
"oo c #ffffff",
"op c #ffffff",
"pa c #ffffff",
"pb c #ffffff",
"pc c #ffffff",
"pd c #ffffff",
"pe c #ffffff",
"pf c #ffffff",
"pg c #ffffff",
"ph c #ffffff",
"pi c #ffffff",
"pj c #ffffff",
"pk c #ffffff",
"pl c #ffffff",
"pm c #ffffff",
"pn c #ffffff",
"po c #ffffff",
"pp c None",
"pppppppppppppppppppppppppppppppppppppppppppp",
"pppppppppppppppppppppppppppppppppppppppppppp",
"ppppaaaaaaaaaaaaaapppppppppppppppppppppppppp",
"ppabgikakakakakacmbbpppppppppppppppppppppppp",
"ppaijnjajajaipipgdbapppppppppppppppppppppppp",
"apedjniciaidifiiiibianpppppppppppppppppppppp",
"aojbhhgggcgegkhdhfchbdacaaaaaaaaaaaaaapppppp",
"apjhgaflemfdflfifgepejfkgfgohahmigimhcaapppp",
"ajjkdkefdhdjdndldjebfcfaeoelemekehdpcoaapppp",
"aajfcjcdalaaaaaaaaaaaaaaaaaaaaaaaaaaaaaaacac",
"aajecbbcjmkfkdkdkdkdkdkdkdkdkdkdkdkcjpjljgji",
"aajdbkakkijajajajajajajajajaipipipiliehnhdfm",
"aajdbfjjkeioipipioipioioioioioinikiehnhbghcg",
"aajcamkhilikilikijikijifihihieibhlheglgbecbh",
"aagjbpkghphohohnhjhnhihghjhggngpgegcfjencfad",
"aaffjjgmgmghgegegcgcfpfpfpfnfhfeegeadodabgaf",
"aaeekbfofjfefbenenejeiegeadmdidfddcpcpblahpp",
"aajohkdgdedcdbcncnckclcicecccabobnbmbjbeagpp",
"ppaaaaaaaaaaaaaaaaaaaaaaaaaaaaaaaaaaaaaepppp",
"pppppppppppppppppppppppppppppppppppppppppppp",
"pppppppppppppppppppppppppppppppppppppppppppp",
"pppppppppppppppppppppppppppppppppppppppppppp"
};
