/* XPM */
static const char * stock_left_arrow_24[] = {
"22 22 64 2",
"aa c #000000",
"ab c #2d2d2d",
"ac c #3b5035",
"ad c #3c5235",
"ae c #415639",
"af c #4a6342",
"ag c #547150",
"ah c #5b7950",
"ai c #698267",
"aj c #678c63",
"ak c #7eab78",
"al c #85ae81",
"am c #86af82",
"an c #87af84",
"ao c #88af84",
"ap c #87b083",
"ba c #88b085",
"bb c #9bad9a",
"bc c #a9c4a7",
"bd c #aac5a8",
"be c #aac7a8",
"bf c #adc6ab",
"bg c #aec7ac",
"bh c #adc8ab",
"bi c #b3c4b3",
"bj c #b0c7ae",
"bk c #b0c9ae",
"bl c #b0c9b0",
"bm c #b1c9b0",
"bn c #b2c9b0",
"bo c #b6c7b6",
"bp c #b3cab1",
"ca c #b4cbb2",
"cb c #b7ccb5",
"cc c #b5ceb5",
"cd c #b9ceb7",
"ce c #b9d0b9",
"cf c #bbcfba",
"cg c #bbd0b9",
"ch c #bad1ba",
"ci c #cddecb",
"cj c #cfdfcc",
"ck c #ffffff",
"cl c #ffffff",
"cm c #ffffff",
"cn c #ffffff",
"co c #ffffff",
"cp c #ffffff",
"da c #ffffff",
"db c #ffffff",
"dc c #ffffff",
"dd c #ffffff",
"de c #ffffff",
"df c #ffffff",
"dg c #ffffff",
"dh c #ffffff",
"di c #ffffff",
"dj c #ffffff",
"dk c #ffffff",
"dl c #ffffff",
"dm c #ffffff",
"dn c #ffffff",
"do c #ffffff",
"dp c None",
"dpdpdpdpdpdpdpdpdpdpdpdpdpdpdpdpdpdpdpdpdpdp",
"dpdpdpdpdpdpdpdpdpdpdpdpdpdpdpdpdpdpdpdpdpdp",
"dpdpdpdpdpdpdpdpdpdpdpdpdpdpdpdpdpdpdpdpdpdp",
"dpdpdpdpdpdpdpdpdpdpdpaadpdpdpdpdpdpdpdpdpdp",
"dpdpdpdpdpdpdpdpdpdpaaaadpdpdpdpdpdpdpdpdpdp",
"dpdpdpdpdpdpdpdpdpaaceaadpdpdpdpdpdpdpdpdpdp",
"dpdpdpdpdpdpdpdpaaciboaadpdpdpdpdpdpdpdpdpdp",
"dpdpdpdpdpdpdpaacibmbiaaaaaaaaaaaaaaaadpdpdp",
"dpdpdpdpdpdpaacicacccbcdchcdcfcgbnakaadpdpdp",
"dpdpdpdpdpaacibebpblbkbgbdbdbdbgbcaiaadpdpdp",
"dpdpdpdpabcjbhbjbfbfbhbebgbgbjbgbhajaadpdpdp",
"dpdpdpaabbalanananananapaoanapbaamagaadpdpdp",
"dpdpdpdpaaadahahahahahahahahahahahafaadpdpdp",
"dpdpdpdpdpaaadahahahahahahahahahahafaadpdpdp",
"dpdpdpdpdpdpaaadahahafacacacacacacaeaadpdpdp",
"dpdpdpdpdpdpdpaaadahafaaaaaaaaaaaaaaaadpdpdp",
"dpdpdpdpdpdpdpdpaaadafaadpdpdpdpdpdpdpdpdpdp",
"dpdpdpdpdpdpdpdpdpaaafaadpdpdpdpdpdpdpdpdpdp",
"dpdpdpdpdpdpdpdpdpdpaaaadpdpdpdpdpdpdpdpdpdp",
"dpdpdpdpdpdpdpdpdpdpdpaadpdpdpdpdpdpdpdpdpdp",
"dpdpdpdpdpdpdpdpdpdpdpdpdpdpdpdpdpdpdpdpdpdp",
"dpdpdpdpdpdpdpdpdpdpdpdpdpdpdpdpdpdpdpdpdpdp"
};
