/* XPM */
static const char * stock_colorselector_24[] = {
"22 22 256 2",
"aa c #000000",
"ab c #000100",
"ac c #030000",
"ad c #040000",
"ae c #050000",
"af c #070000",
"ag c #060100",
"ah c #080000",
"ai c #080100",
"aj c #030500",
"ak c #0c0303",
"al c #090600",
"am c #0b0505",
"an c #090806",
"ao c #14100f",
"ap c #131210",
"ba c #201a1a",
"bb c #2c2a30",
"bc c #332c2b",
"bd c #4f4d4a",
"be c #574f4f",
"bf c #575050",
"bg c #57514f",
"bh c #274aff",
"bi c #585251",
"bj c #55565d",
"bk c #545665",
"bl c #545666",
"bm c #5d5954",
"bn c #625a53",
"bo c #615c5b",
"bp c #625c59",
"ca c #625c5b",
"cb c #6b625a",
"cc c #696764",
"cd c #d83c1d",
"ce c #6d6767",
"cf c #706760",
"cg c #716860",
"ch c #5e679a",
"ci c #736961",
"cj c #746c67",
"ck c #6b6e80",
"cl c #766d68",
"cm c #ba554b",
"cn c #79736c",
"co c #6971a9",
"cp c #5b6ee2",
"da c #6a8166",
"db c #6a74b0",
"dc c #7f766d",
"dd c #7b7975",
"de c #887c6a",
"df c #897c69",
"dg c #5f79ff",
"dh c #868077",
"di c #84817a",
"dj c #607bff",
"dk c #7e8195",
"dl c #637cff",
"dm c #8f816e",
"dn c #8d8379",
"do c #7a83b1",
"dp c #928470",
"ea c #878786",
"eb c #8c8782",
"ec c #948a7f",
"ed c #908c86",
"ee c #928c84",
"ef c #958c80",
"eg c #988d82",
"eh c #8b8ea3",
"ei c #af8a62",
"ej c #7d8ce8",
"ek c #8590c8",
"el c #778dff",
"em c #97938e",
"en c #8791c6",
"eo c #8791c8",
"ep c #98948f",
"fa c #7b90ff",
"fb c #a09489",
"fc c #74b369",
"fd c #9c9c9c",
"fe c #8d9aea",
"ff c #8e9beb",
"fg c #eb8672",
"fh c #a8a199",
"fi c #d39b49",
"fj c #eb8773",
"fk c #929eeb",
"fl c #a3a3a2",
"fm c #ec8773",
"fn c #e88975",
"fo c #b3a188",
"fp c #94a0eb",
"ga c #96a2e0",
"gb c #93b48e",
"gc c #a3ab9c",
"gd c #cea468",
"ge c #cfa56a",
"gf c #d69b95",
"gg c #d79c96",
"gh c #b8ab9d",
"gi c #d89e97",
"gj c #b6aea3",
"gk c #baad9e",
"gl c #adb0bc",
"gm c #beb0a2",
"gn c #daac6d",
"go c #a4b0f2",
"gp c #cab197",
"ha c #bfb4a6",
"hb c #cbb298",
"hc c #a6b3f9",
"hd c #c2b5a7",
"he c #cbb39a",
"hf c #a7b5ff",
"hg c #a8b7ff",
"hh c #aab8ff",
"hi c #bcbcbc",
"hj c #f1a89a",
"hk c #8fdf82",
"hl c #c9bbac",
"hm c #c0bdba",
"hn c #adbaff",
"ho c #aacfa4",
"hp c #e0b2ad",
"ia c #abd0a5",
"ib c #c8bfb4",
"ic c #f2aea1",
"id c #bcc1e1",
"ie c #e7c652",
"if c #d8c3a5",
"ig c #96eb88",
"ih c #97ec89",
"ii c #d7c5b2",
"ij c #f5c27a",
"ik c #d7c8b8",
"il c #f4bbaf",
"im c #d8c9b9",
"in c #d9cabb",
"io c #c5cbed",
"ip c #dbcab8",
"ja c #d5ccbf",
"jb c #d8ceae",
"jc c #badfb4",
"jd c #d9cec2",
"je c #cacfee",
"jf c #edd37c",
"jg c #e9c8c4",
"jh c #decfbf",
"ji c #ecd47f",
"jj c #ddcfc4",
"jk c #edd47e",
"jl c #e9c9c6",
"jm c #d8d1d0",
"jn c #eacbc7",
"jo c #dad3c9",
"jp c #eaccc9",
"ka c #ced3f3",
"kb c #e1d3c4",
"kc c #ebcdca",
"kd c #d9d5d2",
"ke c #e3d3c2",
"kf c #d6d6d6",
"kg c #e1d4c6",
"kh c #ebcfcc",
"ki c #e2d5c7",
"kj c #dfd7cd",
"kk c #e3d6c8",
"kl c #f8d39f",
"km c #ded7d5",
"kn c #e4d7c9",
"ko c #e0dbd7",
"kp c #c4efbd",
"la c #c8efc1",
"lb c #e3dfd3",
"lc c #e2dfdc",
"ld c #f0dad7",
"le c #f0e0ce",
"lf c #cbf5c4",
"lg c #ccf5c6",
"lh c #ede2d3",
"li c #f1e5bb",
"lj c #f2e6bb",
"lk c #e8e5e2",
"ll c #f5e7b8",
"lm c #ece4e2",
"ln c #e9e6e3",
"lo c #f5e8ba",
"lp c #f5e8bc",
"ma c #f5e8bd",
"mb c #f6e9bd",
"mc c #fae2dd",
"md c #f6eabf",
"me c #f6ebc5",
"mf c #f6e9d8",
"mg c #f5e7e6",
"mh c #f6e9e7",
"mi c #f2ece5",
"mj c #f1ede7",
"mk c #f2ede7",
"ml c #f9eee4",
"mm c #f9efe3",
"mn c #f9f0e4",
"mo c #fbf0e0",
"mp c #f3f2f2",
"na c #f9f1ea",
"nb c #f6f2ed",
"nc c #f9f4e0",
"nd c #faf4df",
"ne c #faf5e1",
"nf c #fbf3ea",
"ng c #fcf8e9",
"nh c #fdfaf8",
"ni c #fcfbfa",
"nj c #fdfcfc",
"nk c #fdfdfc",
"nl c #fefdfc",
"nm c #fefdfd",
"nn c #fffefd",
"no c #ffffff",
"np c #ffffff",
"oa c #ffffff",
"ob c #ffffff",
"oc c #ffffff",
"od c #ffffff",
"oe c #ffffff",
"of c #ffffff",
"og c #ffffff",
"oh c #ffffff",
"oi c #ffffff",
"oj c #ffffff",
"ok c #ffffff",
"ol c #ffffff",
"om c #ffffff",
"on c #ffffff",
"oo c #ffffff",
"op c #ffffff",
"pa c #ffffff",
"pb c #ffffff",
"pc c #ffffff",
"pd c #ffffff",
"pe c #ffffff",
"pf c #ffffff",
"pg c #ffffff",
"ph c #ffffff",
"pi c #ffffff",
"pj c #ffffff",
"pk c #ffffff",
"pl c #ffffff",
"pm c #ffffff",
"pn c #ffffff",
"po c #ffffff",
"pp c #ffffff",
"aaaaaaaaaaaaaaaaaaaaaaaaaaaaaaaaaaaaaaaaaaaa",
"aanmmcmcmcmcicaabhdgdjdjdlfaaangndnenenemeaa",
"aamcililililfgaadghfhfhghghhaandlllllolpjfaa",
"aamcililililfgaadghfhghhhhhnaanelllolplpjkaa",
"aamcililililfnaadjhgekaleogoaancljlimambjkaa",
"aamcililililfjaadlhcbenkaaenaalblplpmamdjkaa",
"aahjfgfgfgfmcdaaelgabfnhaadoaajbjfjkjijkieaa",
"aaaaaaaaaaaaaaaaaaaacenaaaaaaaaaaaaaaaaaaaaa",
"aanknbmimimkiiaakfhicamlbdaaaaaadhgjlhmoklaa",
"aamikbkgkgkigpaafdaabomncjnlaannapaadfifijaa",
"aamikgkgkikihbaaaampepmmfbnmclnlciflaafognaa",
"aamkkgkikikkhbaaaalkemmfdinfedmjddeaafdpgdaa",
"aamkkikikkknheaaaalcfhleibjakjjojjeeafdmgeaa",
"aaiphbhbheheeiaaadkdinikjhimkehljddcafdefiaa",
"aaaaaaaaaaaaaaaaaghmebhdhaghgkgmeccgafaaaaaa",
"aanjmgmgmgmghpaagbbcbmcnefdnecegcfaabjglfpaa",
"aamgjgjljnjngfaahodababgbpbncbbiccahblidfeaa",
"aamgjljnjnjpgfaakpiagcaeakahaiacbbbkckioffaa",
"aamhjpkckckhggaalfjcadlmkmjmkolnniajdkjefkaa",
"aamhkckckhkhgiaalglaadamaeaoacanaaabehkaejaa",
"aaldgfgggggicmaaigihihihhkfcaadbdbchcofpcpaa",
"aaaaaaaaaaaaaaaaaaaaaaaaaaaaaaaaaaaaaaaaaaaa"
};
