/* XPM */
static const char * stock_refresh_24[] = {
"22 22 128 2",
"aa c #000000",
"ab c #0d110c",
"ac c #172116",
"ad c #283926",
"ae c #2b3a29",
"af c #3a4e37",
"ag c #4d6a49",
"ah c #4f6b4c",
"ai c #516d4c",
"aj c #526f4c",
"ak c #51714e",
"al c #557451",
"am c #567453",
"an c #5b7b57",
"ao c #5e7f5a",
"ap c #5d8059",
"ba c #5f815a",
"bb c #60835b",
"bc c #63865f",
"bd c #63885e",
"be c #64885f",
"bf c #698f63",
"bg c #689063",
"bh c #6a8f64",
"bi c #6b9166",
"bj c #6b9265",
"bk c #6b9266",
"bl c #6c9367",
"bm c #6e9467",
"bn c #6d9568",
"bo c #6e9668",
"bp c #6f9669",
"ca c #70976a",
"cb c #70986a",
"cc c #71986b",
"cd c #70996b",
"ce c #71996b",
"cf c #71996c",
"cg c #72996b",
"ch c #729a6b",
"ci c #739a6d",
"cj c #739b6d",
"ck c #729c6c",
"cl c #759c6d",
"cm c #759c70",
"cn c #749e6d",
"co c #749e6f",
"cp c #759f6e",
"da c #759f6f",
"db c #769f70",
"dc c #76a071",
"dd c #76a170",
"de c #77a170",
"df c #78a472",
"dg c #79a674",
"dh c #7ba574",
"di c #7ea778",
"dj c #7fa879",
"dk c #80a87a",
"dl c #7eab77",
"dm c #81ab7c",
"dn c #88af82",
"do c #8cb087",
"dp c #8faf8b",
"ea c #88b583",
"eb c #8cb887",
"ec c #90b68b",
"ed c #96b991",
"ee c #9abc95",
"ef c #9cbe97",
"eg c #9ac195",
"eh c #a6c1a3",
"ei c #a5c9a0",
"ej c #a6caa1",
"ek c #a7cca2",
"el c #afcbac",
"em c #afccab",
"en c #aed5a9",
"eo c #b5d2b1",
"ep c #b5d2b2",
"fa c #b7d2b2",
"fb c #b3d5ae",
"fc c #b6d3b2",
"fd c #b3d7ae",
"fe c #b9d5b4",
"ff c #bcd6b9",
"fg c #bbd9b8",
"fh c #bddcba",
"fi c #c2dbbf",
"fj c #c3dbbf",
"fk c #bbe1b6",
"fl c #c7e0c3",
"fm c #c7e0c4",
"fn c #c3e3bf",
"fo c #c7e1c4",
"fp c #c6e3c3",
"ga c #cae3c6",
"gb c #cbe3c6",
"gc c #c7e6c3",
"gd c #cbe4c7",
"ge c #cbe4c8",
"gf c #cde4c9",
"gg c #cce5c8",
"gh c #c6eac1",
"gi c #cde5c9",
"gj c #cde6c9",
"gk c #cae9c5",
"gl c #cfe7ca",
"gm c #cfe7cb",
"gn c #cdeac9",
"go c #d0e9cc",
"gp c #c8efc3",
"ha c #d0ebcb",
"hb c #cfeccb",
"hc c #d4ead0",
"hd c #d5ecd1",
"he c #d7f0d3",
"hf c #daf5d6",
"hg c #dcf4d6",
"hh c #def7d9",
"hi c #e1f7dd",
"hj c #effdee",
"hk c #f0ffee",
"hl c #f3fff2",
"hm c #f5fff4",
"hn c #ffffff",
"ho c #ffffff",
"hp c None",
"hphphphphphphpaahphphphphphphphphphphphphphp",
"hphphphphphphpaaaahphphphphphphphphphphphphp",
"hphphphphphphpaahkaahphphphphphphphphphphphp",
"hphphphpaaaaaaaagahmaahphphphphphphphphphphp",
"hphphpabckejgagagdgdhjaahphphphphpaaaahphphp",
"hphpaceagagagdgdgggjgmhlaahphphpaadjbgaahphp",
"hpaackgagdgdgggiglgohchdenaahphphpaaeebcaahp",
"hpaeejgaebcbccchcldaddamaahphphphphpaaelaahp",
"aadlgadfbpcacecjcpdeajaahphphphphphpaafabbaa",
"aaeiegbpahaaaaaadbaiaahphphpaahphphpaafedhaa",
"aaflbnbbaahphpaaakaahphphpaaaahphphpaafcdmaa",
"aafjbjaahphphpaaaahphphpaagpaahphpaaekeodkaa",
"aaecdgaahphphpaahphphpaaghhhaaaaaafdfgemcnaa",
"aaandoaahphphphphphpaafkhfhihghehbfpffdibeaa",
"hpaaehaahphphphphpaafbgnhagkgcfnfhepeddcafaa",
"hpaaaodpaahphphpaaeffmgbgjgfgefofidnbkalaahp",
"hphpaabdcmaahphphpaacocgcjcicfcbboblbaaaaahp",
"hphphpaaaahphphphphpaacdbmbfbgbiapagaaaahphp",
"hphphphphphphphphphphpaabnbhaaaaaaaahphphphp",
"hphphphphphphphphphphphpadbkaahphphphphphphp",
"hphphphphphphphphphphphphpaaaahphphphphphphp",
"hphphphphphphphphphphphphphpaahphphphphphphp"
};
