/* XPM */
static const char * thumbs_xpm[] = {
"22 22 278 2",
"  	c None",
". 	c #6C6C6C",
"+ 	c #6A6A6A",
"@ 	c #676767",
"# 	c #646464",
"$ 	c #616161",
"% 	c #5E5E5E",
"& 	c #5A5A5A",
"* 	c #535353",
"= 	c #494949",
"- 	c #696969",
"; 	c #D7D7D7",
"> 	c #E7E7E7",
", 	c #E5E5E5",
"' 	c #D9D9D9",
") 	c #BABABA",
"! 	c #686868",
"~ 	c #E4E4E4",
"{ 	c #FAFAFA",
"] 	c #F7F7F7",
"^ 	c #E8E8E8",
"/ 	c #A0A0A0",
"( 	c #959595",
"_ 	c #666666",
": 	c #ADADAD",
"< 	c #ECECEC",
"[ 	c #606161",
"} 	c #DDE1E3",
"| 	c #F3F5F7",
"1 	c #F8F9F9",
"2 	c #F5F7F5",
"3 	c #F3F5F4",
"4 	c #F8F8F8",
"5 	c #F9F9F9",
"6 	c #9E9E9E",
"7 	c #8E8E8E",
"8 	c #493431",
"9 	c #947065",
"0 	c #82392F",
"a 	c #531516",
"b 	c #4E767E",
"c 	c #4AADD4",
"d 	c #529DC4",
"e 	c #B9CFC9",
"f 	c #AAD5A0",
"g 	c #6EAA71",
"h 	c #B7BEBF",
"i 	c #DBDBDD",
"j 	c #F5F5F5",
"k 	c #A9A9A8",
"l 	c #888885",
"m 	c #71706B",
"n 	c #585653",
"o 	c #282727",
"p 	c #87413A",
"q 	c #F2C4AC",
"r 	c #E66B4F",
"s 	c #A4282C",
"t 	c #82CCE4",
"u 	c #60B5D9",
"v 	c #3576A5",
"w 	c #5B7E88",
"x 	c #C8E7C1",
"y 	c #539F52",
"z 	c #26553A",
"A 	c #3E3E44",
"B 	c #C5C5C5",
"C 	c #F0F0F0",
"D 	c #F1F1F1",
"E 	c #D6D5D4",
"F 	c #BCBAB6",
"G 	c #9C9890",
"H 	c #454341",
"I 	c #A34632",
"J 	c #EA7E5C",
"K 	c #CF3B2D",
"L 	c #952931",
"M 	c #51AED1",
"N 	c #36A0CE",
"O 	c #284D80",
"P 	c #688686",
"Q 	c #89C779",
"R 	c #35923D",
"S 	c #2C553C",
"T 	c #404040",
"U 	c #999999",
"V 	c #DBDADA",
"W 	c #F0EFED",
"X 	c #E8E5E1",
"Y 	c #D7D3CC",
"Z 	c #C0BAB0",
"` 	c #5B5651",
" .	c #9E3929",
"..	c #E54F31",
"+.	c #B52A23",
"@.	c #BD797D",
"#.	c #6DBADA",
"$.	c #3295C3",
"%.	c #3F5A85",
"&.	c #79917D",
"*.	c #55AD47",
"=.	c #297D2F",
"-.	c #40584B",
";.	c #4F4F50",
">.	c #858585",
",.	c #C6C5C3",
"'.	c #E9E6E1",
").	c #EFE9E2",
"!.	c #E1DAD0",
"~.	c #D4CCBF",
"{.	c #676158",
"].	c #9B6A5F",
"^.	c #DC492E",
"/.	c #A62120",
"(.	c #D4CCCC",
"_.	c #8BC7DD",
":.	c #397EAA",
"<.	c #60728D",
"[.	c #799977",
"}.	c #4C9C44",
"|.	c #2B633B",
"1.	c #5E6561",
"2.	c #7D7C7C",
"3.	c #BFBCB8",
"4.	c #E5E1D9",
"5.	c #F1E9DE",
"6.	c #E6DED0",
"7.	c #DDD3C2",
"8.	c #6E675B",
"9.	c #A09596",
"0.	c #DD6F5D",
"a.	c #B64141",
"b.	c #E6E4E4",
"c.	c #C4D9E3",
"d.	c #55769C",
"e.	c #9A9DA2",
"f.	c #9A999A",
"g.	c #537362",
"h.	c #616764",
"i.	c #706F70",
"j.	c #7B7A77",
"k.	c #BCB8B2",
"l.	c #E4DCD3",
"m.	c #F0E6D9",
"n.	c #EBE0CE",
"o.	c #DFD4BE",
"p.	c #72695A",
"q.	c #9F9B9A",
"r.	c #D97666",
"s.	c #CC837D",
"t.	c #EDEEEF",
"u.	c #D9DCDE",
"v.	c #9FA9B4",
"w.	c #BBBBBA",
"x.	c #A8A8A8",
"y.	c #8D8C8C",
"z.	c #7D7C7D",
"A.	c #757474",
"B.	c #505050",
"C.	c #7B7874",
"D.	c #BBB5AD",
"E.	c #E2D9CD",
"F.	c #EFE3D2",
"G.	c #EDDFCA",
"H.	c #E4D5BC",
"I.	c #746958",
"J.	c #9A817B",
"K.	c #D96451",
"L.	c #E0C5BF",
"M.	c #EAEBEC",
"N.	c #D8D9DA",
"O.	c #C7C8C7",
"P.	c #9F9D9E",
"Q.	c #868686",
"R.	c #7A7979",
"S.	c #474647",
"T.	c #7A7671",
"U.	c #BAB2A8",
"V.	c #E1D6C6",
"W.	c #ECDFCB",
"X.	c #EBDCC5",
"Y.	c #E7D5B9",
"Z.	c #756957",
"`.	c #494343",
" +	c #7D4C46",
".+	c #A09894",
"++	c #B2B1B1",
"@+	c #C0C0C0",
"#+	c #AFAFAF",
"$+	c #989797",
"%+	c #7B7B7B",
"&+	c #636364",
"*+	c #565556",
"=+	c #2E2E2F",
"-+	c #79746E",
";+	c #B9B0A2",
">+	c #DFD2C0",
",+	c #EADCC5",
"'+	c #EAD9BE",
")+	c #E7D4B5",
"!+	c #776855",
"~+	c #1F1A1B",
"{+	c #513633",
"]+	c #6F6B6A",
"^+	c #808080",
"/+	c #87878A",
"(+	c #777778",
"_+	c #5B5B5B",
":+	c #515150",
"<+	c #424243",
"[+	c #3B3B3B",
"}+	c #4D4B47",
"|+	c #958E83",
"1+	c #BBB0A0",
"2+	c #DED0BA",
"3+	c #E9D8BD",
"4+	c #E8D5B8",
"5+	c #E6D1B1",
"6+	c #796853",
"7+	c #2B2B2B",
"8+	c #8E8D8D",
"9+	c #9A9997",
"0+	c #999693",
"a+	c #97948F",
"b+	c #96918A",
"c+	c #958F87",
"d+	c #9A9388",
"e+	c #A89F91",
"f+	c #C7BBA7",
"g+	c #E1D1B7",
"h+	c #E7D5B7",
"i+	c #E4CDAA",
"j+	c #7B6A51",
"k+	c #393838",
"l+	c #B6B5B3",
"m+	c #C6C4BF",
"n+	c #C5C1BA",
"o+	c #C4BEB5",
"p+	c #C2BAAF",
"q+	c #C1B8AA",
"r+	c #C2B7A6",
"s+	c #CBBEAA",
"t+	c #DBCCB2",
"u+	c #E5D2B5",
"v+	c #E2C9A4",
"w+	c #7A674E",
"x+	c #484847",
"y+	c #D6D3CE",
"z+	c #E9E4DC",
"A+	c #E8E0D6",
"B+	c #E6DDD0",
"C+	c #E5D9C9",
"D+	c #E3D6C3",
"E+	c #E1D3BD",
"F+	c #E3D2B9",
"G+	c #E5D3B5",
"H+	c #E2CAA4",
"I+	c #E1C69E",
"J+	c #79664B",
"K+	c #4C4B4A",
"L+	c #DED9D1",
"M+	c #F2EBE0",
"N+	c #F0E7DA",
"O+	c #EDE0CC",
"P+	c #E9D8BE",
"Q+	c #E8D5B7",
"R+	c #E1C59C",
"S+	c #2F2E2D",
"T+	c #7A766F",
"U+	c #7E786F",
"V+	c #7D766B",
"W+	c #7D7467",
"X+	c #7C7263",
"Y+	c #7C7060",
"Z+	c #7B6E5C",
"`+	c #7C6D58",
" @	c #7C6C54",
".@	c #473B29",
"                                            ",
"              . + @ # $ % & * =             ",
"            - ; > > > > > , ' ) %           ",
"            ! ~ { { { { { { ] ^ / (         ",
"            _ ~ { { { { { { { ] : < (       ",
"            [ } | 1 2 3 4 5 { { 6 > , 7     ",
"    8 9 0 a b c d e f g h i j 5 k l m n o   ",
"    p q r s t u v w x y z A B C D E F G H   ",
"    I J K L M N O P Q R S T U V W X Y Z `   ",
"     ...+.@.#.$.%.&.*.=.-.;.>.,.'.).!.~.{.  ",
"    ].^./.(._.:.<.[.}.|.1.;.2.3.4.5.6.7.8.  ",
"    9.0.a.b.c.d.e.f.g.h.i.;.j.k.l.m.n.o.p.  ",
"    q.r.s.t.u.v.w.x.y.z.A.B.C.D.E.F.G.H.I.  ",
"    J.K.L.M.N.O.) : P.Q.R.S.T.U.V.W.X.Y.Z.  ",
"    `. +.+++@+#+$+Q.%+&+*+=+-+;+>+,+'+)+!+  ",
"    ~+{+]+^+/+(+_ _+:+<+[+}+|+1+2+3+4+5+6+  ",
"            7+8+9+0+a+b+c+d+e+f+g+h+5+i+j+  ",
"            k+l+m+n+o+p+q+r+s+t+u+5+i+v+w+  ",
"            x+y+z+A+B+C+D+E+F+G+5+i+H+I+J+  ",
"            K+L+M+N+F.O+X.P+Q+5+i+H+I+R+J+  ",
"            S+T+U+V+W+X+Y+Z+`+ @j+w+J+J+.@  ",
"                                            "};
