/* XPM */
static const char * up_xpm[] = {
"22 22 103 2",
"  	c None",
". 	c #0C3C54",
"+ 	c #050C16",
"@ 	c #749CB6",
"# 	c #345A76",
"$ 	c #06111D",
"% 	c #83ADC5",
"& 	c #DEF3FB",
"* 	c #1394B0",
"= 	c #0E526E",
"- 	c #06121E",
"; 	c #799EB8",
"> 	c #FFFCFF",
", 	c #8DD3E3",
"' 	c #0CB1C7",
") 	c #0E8CA8",
"! 	c #0D425C",
"~ 	c #06131F",
"{ 	c #7DA2BC",
"] 	c #35CBDB",
"^ 	c #1ED9DD",
"/ 	c #0DB3C9",
"( 	c #0E88A4",
"_ 	c #0D455F",
": 	c #7CA3BD",
"< 	c #34D3DD",
"[ 	c #15C2D4",
"} 	c #11CBD9",
"| 	c #18BACB",
"1 	c #0E8BA7",
"2 	c #0D4660",
"3 	c #7499B5",
"4 	c #37CBDB",
"5 	c #14C1D3",
"6 	c #0CB1C9",
"7 	c #0CB0C8",
"8 	c #44E4E5",
"9 	c #19B4C8",
"0 	c #0E819D",
"a 	c #0D405A",
"b 	c #050E18",
"c 	c #6FA2BC",
"d 	c #83BFD5",
"e 	c #4EB8CE",
"f 	c #23BDD2",
"g 	c #0CB5CC",
"h 	c #13BED3",
"i 	c #38E2E2",
"j 	c #0E8CA7",
"k 	c #0F708E",
"l 	c #29516D",
"m 	c #617F9B",
"n 	c #486E8C",
"o 	c #2B6D89",
"p 	c #0E7E9A",
"q 	c #3DADC5",
"r 	c #31C1D3",
"s 	c #0EB2CA",
"t 	c #0E9CB5",
"u 	c #0E7A96",
"v 	c #0E6985",
"w 	c #0E5F7B",
"x 	c #0D4C66",
"y 	c #040B13",
"z 	c #030003",
"A 	c #050309",
"B 	c #030208",
"C 	c #04050D",
"D 	c #7FDCEA",
"E 	c #32C5D7",
"F 	c #0FB2CA",
"G 	c #22D1DB",
"H 	c #117492",
"I 	c #081D2D",
"J 	c #04040C",
"K 	c #030006",
"L 	c #030004",
"M 	c #CCF0F8",
"N 	c #89E4F0",
"O 	c #64CBDD",
"P 	c #40E3E4",
"Q 	c #127391",
"R 	c #071A28",
"S 	c #88E4F0",
"T 	c #127491",
"U 	c #83E3EF",
"V 	c #107391",
"W 	c #5DBED4",
"X 	c #3DB0C8",
"Y 	c #10A5BF",
"Z 	c #0F6C88",
"` 	c #071B29",
" .	c #2C5975",
"..	c #24708E",
"+.	c #0E6D89",
"@.	c #0F6E8C",
"#.	c #0E4D69",
"$.	c #061521",
"%.	c #03040A",
"&.	c #061622",
"*.	c #071624",
"=.	c #050F19",
"-.	c #030309",
"                                            ",
"                                            ",
"                                            ",
"                    . +                     ",
"                  . @ # $                   ",
"                . % & * = -                 ",
"              . ; > , ' ) ! ~               ",
"            . { > , ] ^ / ( _ -             ",
"          . : > , < [ } ^ | 1 2 -           ",
"        . 3 > , 4 5 6 7 } 8 9 0 a b         ",
"      . c & d e f g 6 7 h } i j k _ +       ",
"    . l m n o p q r g s } t u v w x . y     ",
"    z A A B C z , D E F G H I J B B K L     ",
"              . M N O F P Q R               ",
"              . > S O F 8 T R               ",
"              . > U O F ^ V R               ",
"              . M W X Y } Z `               ",
"              .  ...+.@.@.#.$.              ",
"              %.$ &.*.&.&.=.-.              ",
"                                            ",
"                                            ",
"                                            "};
